<?xml version="1.0" encoding="UTF-8"?>
<svg width="1200" height="1e3" version="1.1" viewBox="0 0 317.5 264.58333" xmlns="http://www.w3.org/2000/svg" xmlns:cc="http://creativecommons.org/ns#" xmlns:dc="http://purl.org/dc/elements/1.1/" xmlns:rdf="http://www.w3.org/1999/02/22-rdf-syntax-ns#" xmlns:xlink="http://www.w3.org/1999/xlink">
<defs>
<marker id="f" overflow="visible" orient="auto">
<path transform="matrix(.2 0 0 .2 1.48 .2)" d="m-2.5-1c0 2.76-2.24 5-5 5s-5-2.24-5-5 2.24-5 5-5 5 2.24 5 5z" fill="#e74a4b" fill-rule="evenodd" stroke="#e74a4b" stroke-width="1pt"/>
</marker>
<marker id="i" overflow="visible" orient="auto">
<path transform="matrix(.2 0 0 .2 1.48 .2)" d="m-2.5-1c0 2.76-2.24 5-5 5s-5-2.24-5-5 2.24-5 5-5 5 2.24 5 5z" fill="#e74a4b" fill-rule="evenodd" stroke="#e74a4b" stroke-width="1pt"/>
</marker>
<marker id="l" overflow="visible" orient="auto">
<path transform="matrix(.2 0 0 .2 1.48 .2)" d="m-2.5-1c0 2.76-2.24 5-5 5s-5-2.24-5-5 2.24-5 5-5 5 2.24 5 5z" fill="#e74a4b" fill-rule="evenodd" stroke="#e74a4b" stroke-width="1pt"/>
</marker>
<marker id="c" overflow="visible" orient="auto">
<path transform="matrix(.2 0 0 .2 1.48 .2)" d="m-2.5-1c0 2.76-2.24 5-5 5s-5-2.24-5-5 2.24-5 5-5 5 2.24 5 5z" fill="#f37e4a" fill-rule="evenodd" stroke="#f37e4a" stroke-width="1pt"/>
</marker>
<filter id="m" x="-1.0788" y="-1.0764" width="3.1576" height="3.1528" color-interpolation-filters="sRGB">
<feGaussianBlur stdDeviation="188.17892"/>
</filter>
<marker id="a" overflow="visible" orient="auto">
<path transform="matrix(.2 0 0 .2 1.48 .2)" d="m-2.5-1c0 2.76-2.24 5-5 5s-5-2.24-5-5 2.24-5 5-5 5 2.24 5 5z" fill="#e74a4b" fill-rule="evenodd" stroke="#e74a4b" stroke-width="1pt"/>
</marker>
<marker id="b" overflow="visible" orient="auto">
<path transform="matrix(.2 0 0 .2 1.48 .2)" d="m-2.5-1c0 2.76-2.24 5-5 5s-5-2.24-5-5 2.24-5 5-5 5 2.24 5 5z" fill="#254e70" fill-rule="evenodd" stroke="#254e70" stroke-width="1pt"/>
</marker>
<marker id="k" overflow="visible" orient="auto">
<path transform="matrix(.2 0 0 .2 1.48 .2)" d="m-2.5-1c0 2.76-2.24 5-5 5s-5-2.24-5-5 2.24-5 5-5 5 2.24 5 5z" fill="#856084" fill-rule="evenodd" stroke="#856084" stroke-width="1pt"/>
</marker>
<marker id="h" overflow="visible" orient="auto">
<path transform="matrix(.2 0 0 .2 1.48 .2)" d="m-2.5-1c0 2.76-2.24 5-5 5s-5-2.24-5-5 2.24-5 5-5 5 2.24 5 5z" fill="#856084" fill-rule="evenodd" stroke="#856084" stroke-width="1pt"/>
</marker>
<marker id="e" overflow="visible" orient="auto">
<path transform="matrix(.2 0 0 .2 1.48 .2)" d="m-2.5-1c0 2.76-2.24 5-5 5s-5-2.24-5-5 2.24-5 5-5 5 2.24 5 5z" fill="#856084" fill-rule="evenodd" stroke="#856084" stroke-width="1pt"/>
</marker>
<marker id="j" overflow="visible" orient="auto">
<path transform="matrix(.2 0 0 .2 1.48 .2)" d="m-2.5-1c0 2.76-2.24 5-5 5s-5-2.24-5-5 2.24-5 5-5 5 2.24 5 5z" fill="#84e296" fill-rule="evenodd" stroke="#84e296" stroke-width="1pt"/>
</marker>
<marker id="g" overflow="visible" orient="auto">
<path transform="matrix(.2 0 0 .2 1.48 .2)" d="m-2.5-1c0 2.76-2.24 5-5 5s-5-2.24-5-5 2.24-5 5-5 5 2.24 5 5z" fill="#84e296" fill-rule="evenodd" stroke="#84e296" stroke-width="1pt"/>
</marker>
<marker id="d" overflow="visible" orient="auto">
<path transform="matrix(.2 0 0 .2 1.48 .2)" d="m-2.5-1c0 2.76-2.24 5-5 5s-5-2.24-5-5 2.24-5 5-5 5 2.24 5 5z" fill="#84e296" fill-rule="evenodd" stroke="#84e296" stroke-width="1pt"/>
</marker>
</defs>
<metadata>
<rdf:RDF>
<cc:Work rdf:about="">
<dc:format>image/svg+xml</dc:format>
<dc:type rdf:resource="http://purl.org/dc/dcmitype/StillImage"/>
<dc:title/>
</cc:Work>
</rdf:RDF>
</metadata>
<g transform="matrix(.33319 0 0 .33319 12.64 165.01)">
<g transform="translate(-22.688 45.377)">
<g transform="matrix(.18285 0 0 .16961 419.12 -434.02)">
<path d="m16 0h432c8.8359 0 16 7.1641 16 16v432c0 8.8359-7.1641 16-16 16h-432c-8.8359 0-16-7.1641-16-16v-432c0-8.8359 7.1641-16 16-16z" fill="#acabb1"/>
<path d="m464 47.84v400.16c-0.0273 8.8242-7.1758 15.973-16 16h-432c-3.832 0.02344-7.5352-1.375-10.398-3.9219 102.64-35.598 385.04-155.12 458.4-412.24z" fill="#898890"/>
<path d="m144 208c0.0312 2.6797-0.18359 5.3594-0.64063 8-3.9531 27.535-27.543 47.977-55.359 47.977-27.816 0-51.406-20.441-55.359-47.977-0.45703-2.6406-0.67188-5.3203-0.64062-8-0.02734-2.6797 0.1875-5.3594 0.64062-8 1.25-9.2539 4.8867-18.023 10.559-25.441 3.1211-4.3984 6.9609-8.2383 11.359-11.359 7.4336-5.6641 16.191-9.3242 25.441-10.641 2.6484-0.39062 5.3242-0.57812 8-0.55859 2.6797-0.0273 5.3594 0.18359 8 0.64062 9.2539 1.25 18.023 4.8867 25.441 10.559 4.3984 3.1211 8.2383 6.9609 11.359 11.359 5.6641 7.4336 9.3242 16.191 10.641 25.441 0.39062 2.6484 0.57812 5.3242 0.55859 8z" fill="#ffb655"/>
<path d="m32 48h112v64h-112z" fill="#ffde55"/>
<path d="m176 48h112v64h-112z" fill="#ffde55"/>
<path d="m320 48h112v64h-112z" fill="#ffde55"/>
<path d="m64 296v120h48v-120z" fill="#5aaae7"/>
<path d="m160 288c-13.254 0-24 10.746-24 24s10.746 24 24 24 24-10.746 24-24-10.746-24-24-24z" fill="#ff6243"/>
<path d="m216 320h32v32h-32z" fill="#e6e7e8"/>
<path d="m216 384h32v32h-32z" fill="#ff5023"/>
<path d="m360 320h32v32h-32z" fill="#e6e7e8"/>
<path d="m360 384h32v32h-32z" fill="#ff5023"/>
<g fill="#ee8700">
<path d="m96 152.64v23.359h-16v-23.441c2.6484-0.39062 5.3242-0.57812 8-0.55859 2.6797-0.0273 5.3594 0.18359 8 0.64062z"/>
<path d="m71.039 179.68-11.359 11.359-16.48-16.48c3.1211-4.3984 6.9609-8.2383 11.359-11.359z"/>
<path d="m56 200v16h-23.359c-0.45703-2.6406-0.67188-5.3203-0.64062-8-0.02734-2.6797 0.1875-5.3594 0.64062-8z"/>
<path d="m144 208c0.0312 2.6797-0.18359 5.3594-0.64063 8h-23.359v-16h23.441c0.39062 2.6484 0.57812 5.3242 0.55859 8z"/>
<path d="m132.8 174.56-16.48 16.48-11.359-11.359 16.48-16.48c4.3984 3.1211 8.2383 6.9609 11.359 11.359z"/>
<path d="m80 200h16v40h-16z"/>
<path d="m96 152.64v23.359h-16v-23.441c2.6484-0.39062 5.3242-0.57812 8-0.55859 2.6797-0.0273 5.3594 0.18359 8 0.64062z"/>
<path d="m71.039 179.68-11.359 11.359-16.48-16.48c3.1211-4.3984 6.9609-8.2383 11.359-11.359z"/>
<path d="m56 200v16h-23.359c-0.45703-2.6406-0.67188-5.3203-0.64062-8-0.02734-2.6797 0.1875-5.3594 0.64062-8z"/>
<path d="m144 208c0.0312 2.6797-0.18359 5.3594-0.64063 8h-23.359v-16h23.441c0.39062 2.6484 0.57812 5.3242 0.55859 8z"/>
<path d="m132.8 174.56-16.48 16.48-11.359-11.359 16.48-16.48c4.3984 3.1211 8.2383 6.9609 11.359 11.359z"/>
</g>
<path d="m80 200h16v40h-16z" fill="#787680"/>
<path d="m288 208c0.0312 2.6797-0.18359 5.3594-0.64063 8-3.9531 27.535-27.543 47.977-55.359 47.977s-51.406-20.441-55.359-47.977c-0.45703-2.6406-0.67187-5.3203-0.64062-8-0.0273-2.6797 0.1875-5.3594 0.64062-8 1.25-9.2539 4.8867-18.023 10.559-25.441 3.1211-4.3984 6.9609-8.2383 11.359-11.359 7.4336-5.6641 16.191-9.3242 25.441-10.641 2.6484-0.39062 5.3242-0.57812 8-0.55859 2.6797-0.0273 5.3594 0.18359 8 0.64062 9.2539 1.25 18.023 4.8867 25.441 10.559 4.3984 3.1211 8.2383 6.9609 11.359 11.359 5.6641 7.4336 9.3242 16.191 10.641 25.441 0.39062 2.6484 0.57812 5.3242 0.55859 8z" fill="#ffb655"/>
<path d="m240 152.64v23.359h-16v-23.441c2.6484-0.39062 5.3242-0.57812 8-0.55859 2.6797-0.0273 5.3594 0.18359 8 0.64062z" fill="#ee8700"/>
<path d="m215.04 179.68-11.359 11.359-16.48-16.48c3.1211-4.3984 6.9609-8.2383 11.359-11.359z" fill="#ee8700"/>
<path d="m200 200v16h-23.359c-0.45703-2.6406-0.67187-5.3203-0.64062-8-0.0273-2.6797 0.1875-5.3594 0.64062-8z" fill="#ee8700"/>
<path d="m288 208c0.0312 2.6797-0.18359 5.3594-0.64063 8h-23.359v-16h23.441c0.39062 2.6484 0.57812 5.3242 0.55859 8z" fill="#ee8700"/>
<path d="m276.8 174.56-16.48 16.48-11.359-11.359 16.48-16.48c4.3984 3.1211 8.2383 6.9609 11.359 11.359z" fill="#ee8700"/>
<path d="m224 200h16v40h-16z" fill="#ee8700"/>
<path d="m240 152.64v23.359h-16v-23.441c2.6484-0.39062 5.3242-0.57812 8-0.55859 2.6797-0.0273 5.3594 0.18359 8 0.64062z" fill="#ee8700"/>
<path d="m215.04 179.68-11.359 11.359-16.48-16.48c3.1211-4.3984 6.9609-8.2383 11.359-11.359z" fill="#ee8700"/>
<path d="m200 200v16h-23.359c-0.45703-2.6406-0.67187-5.3203-0.64062-8-0.0273-2.6797 0.1875-5.3594 0.64062-8z" fill="#ee8700"/>
<path d="m288 208c0.0312 2.6797-0.18359 5.3594-0.64063 8h-23.359v-16h23.441c0.39062 2.6484 0.57812 5.3242 0.55859 8z" fill="#ee8700"/>
<path d="m276.8 174.56-16.48 16.48-11.359-11.359 16.48-16.48c4.3984 3.1211 8.2383 6.9609 11.359 11.359z" fill="#ee8700"/>
<path d="m224 200h16v40h-16z" fill="#787680"/>
<path d="m432 208c0.0312 2.6797-0.18359 5.3594-0.64063 8-3.9531 27.535-27.543 47.977-55.359 47.977s-51.406-20.441-55.359-47.977c-0.45703-2.6406-0.67187-5.3203-0.64062-8-0.0273-2.6797 0.1875-5.3594 0.64062-8 1.25-9.2539 4.8867-18.023 10.559-25.441 3.1211-4.3984 6.9609-8.2383 11.359-11.359 7.4336-5.6641 16.191-9.3242 25.441-10.641 2.6484-0.39062 5.3242-0.57812 8-0.55859 2.6797-0.0273 5.3594 0.18359 8 0.64062 9.2539 1.25 18.023 4.8867 25.441 10.559 4.3984 3.1211 8.2383 6.9609 11.359 11.359 5.6641 7.4336 9.3242 16.191 10.641 25.441 0.39062 2.6484 0.57812 5.3242 0.55859 8z" fill="#ffb655"/>
<path d="m384 152.64v23.359h-16v-23.441c2.6484-0.39062 5.3242-0.57812 8-0.55859 2.6797-0.0273 5.3594 0.18359 8 0.64062z" fill="#ee8700"/>
<path d="m359.04 179.68-11.359 11.359-16.48-16.48c3.1211-4.3984 6.9609-8.2383 11.359-11.359z" fill="#ee8700"/>
<path d="m344 200v16h-23.359c-0.45703-2.6406-0.67187-5.3203-0.64062-8-0.0273-2.6797 0.1875-5.3594 0.64062-8z" fill="#ee8700"/>
<path d="m432 208c0.0312 2.6797-0.18359 5.3594-0.64063 8h-23.359v-16h23.441c0.39062 2.6484 0.57812 5.3242 0.55859 8z" fill="#ee8700"/>
<path d="m420.8 174.56-16.48 16.48-11.359-11.359 16.48-16.48c4.3984 3.1211 8.2383 6.9609 11.359 11.359z" fill="#ee8700"/>
<path d="m368 200h16v40h-16z" fill="#ee8700"/>
<path d="m384 152.64v23.359h-16v-23.441c2.6484-0.39062 5.3242-0.57812 8-0.55859 2.6797-0.0273 5.3594 0.18359 8 0.64062z" fill="#ee8700"/>
<path d="m359.04 179.68-11.359 11.359-16.48-16.48c3.1211-4.3984 6.9609-8.2383 11.359-11.359z" fill="#ee8700"/>
<path d="m344 200v16h-23.359c-0.45703-2.6406-0.67187-5.3203-0.64062-8-0.0273-2.6797 0.1875-5.3594 0.64062-8z" fill="#ee8700"/>
<path d="m432 208c0.0312 2.6797-0.18359 5.3594-0.64063 8h-23.359v-16h23.441c0.39062 2.6484 0.57812 5.3242 0.55859 8z" fill="#ee8700"/>
<path d="m420.8 174.56-16.48 16.48-11.359-11.359 16.48-16.48c4.3984 3.1211 8.2383 6.9609 11.359 11.359z" fill="#ee8700"/>
<path d="m368 200h16v40h-16z" fill="#787680"/>
<path d="m160 280c-9.9102 0-19.262 4.5938-25.32 12.438-6.0586 7.8438-8.1406 18.051-5.6406 27.641l-44.918 24.93 7.7578 13.984 44.961-24.945c10.051 10.574 25.98 13.012 38.734 5.9258 12.75-7.082 19.098-21.895 15.43-36.016-3.6641-14.117-16.418-23.973-31.004-23.957zm0 48c-8.8359 0-16-7.1641-16-16s7.1641-16 16-16 16 7.1641 16 16-7.1641 16-16 16z" fill="#57565c"/>
</g>
<g transform="matrix(1.2917 0 0 1.375 492.61 120.83)">
<rect transform="matrix(.7071 -.7071 .7071 .7071 -17.702 25.876)" x="-6.142" y="31.306" width="57.052" height="6" fill="#424a60"/>
<path d="m40.506 9c-0.552 0-1-0.447-1-1v-7c0-0.553 0.448-1 1-1s1 0.447 1 1v7c0 0.553-0.448 1-1 1z" fill="#ebba16"/>
<path d="m40.506 32c-0.552 0-1-0.447-1-1v-7c0-0.553 0.448-1 1-1s1 0.447 1 1v7c0 0.553-0.448 1-1 1z" fill="#ebba16"/>
<path d="m55.506 17h-7c-0.552 0-1-0.447-1-1s0.448-1 1-1h7c0.552 0 1 0.447 1 1s-0.448 1-1 1z" fill="#ebba16"/>
<path d="m32.506 17h-7c-0.552 0-1-0.447-1-1s0.448-1 1-1h7c0.552 0 1 0.447 1 1s-0.448 1-1 1z" fill="#ebba16"/>
<path d="m46.506 11c-0.256 0-0.512-0.098-0.707-0.293-0.391-0.391-0.391-1.023 0-1.414l4.95-4.95c0.391-0.391 1.023-0.391 1.414 0s0.391 1.023 0 1.414l-4.95 4.95c-0.195 0.195-0.451 0.293-0.707 0.293z" fill="#ebba16"/>
<path d="m51.456 27.95c-0.256 0-0.512-0.098-0.707-0.293l-4.95-4.95c-0.391-0.391-0.391-1.023 0-1.414s1.023-0.391 1.414 0l4.95 4.95c0.391 0.391 0.391 1.023 0 1.414-0.196 0.196-0.452 0.293-0.707 0.293z" fill="#ebba16"/>
<path d="m34.506 11c-0.256 0-0.512-0.098-0.707-0.293l-4.95-4.95c-0.391-0.391-0.391-1.023 0-1.414s1.023-0.391 1.414 0l4.95 4.95c0.391 0.391 0.391 1.023 0 1.414-0.195 0.195-0.451 0.293-0.707 0.293z" fill="#ebba16"/>
<rect transform="matrix(-.7071 .7071 -.7071 -.7071 77.6 6.2057)" x="30.327" y="16.175" width="14.376" height="5.999" fill="#7383bf"/>
</g>
<g transform="matrix(2.1263 0 0 2.1263 697.4 -229.86)">
<path d="m54.804 15h-1.635c-0.646 0-1.169-0.523-1.169-1.168v-6.664c0-0.645-0.523-1.168-1.168-1.168h-21.664c-0.645 0-1.168 0.523-1.168 1.168v6.664c0 0.645-0.523 1.168-1.168 1.168h-10.832v-3h-4v3h-8.804c-0.66 0-1.196 0.536-1.196 1.196v28.607c0 0.661 0.536 1.197 1.196 1.197h51.607c0.661 0 1.197-0.536 1.197-1.196v-28.608c0-0.66-0.536-1.196-1.196-1.196z" fill="#ecf0f1"/>
<path d="m28 13.832c0 0.645-0.523 1.168-1.168 1.168h-10.832v-3h-4v3h-8.804c-0.66 0-1.196 0.536-1.196 1.196v28.607c0 0.661 0.536 1.197 1.196 1.197h24.804z" fill="#bdc3c7"/>
<rect y="50" width="58" height="8" fill="#6d6d6e"/>
<path d="m19 55h-14c-0.552 0-1-0.447-1-1s0.448-1 1-1h14c0.552 0 1 0.447 1 1s-0.448 1-1 1z" fill="#ecf0f1"/>
<path d="m54 55h-1c-0.552 0-1-0.447-1-1s0.448-1 1-1h1c0.552 0 1 0.447 1 1s-0.448 1-1 1z" fill="#ecf0f1"/>
<rect x="31" y="9" width="18" height="11" fill="#94b571"/>
<rect x="4" y="46" width="50" height="4" fill="#8b8a8b"/>
<rect x="31" y="24" width="4" height="4" fill="#f29c1f"/>
<rect x="38" y="24" width="4" height="4" fill="#f29c1f"/>
<rect x="45" y="24" width="4" height="4" fill="#f29c1f"/>
<rect x="31" y="31" width="4" height="4" fill="#f29c1f"/>
<rect x="38" y="31" width="4" height="4" fill="#f29c1f"/>
<rect x="45" y="31" width="4" height="4" fill="#f29c1f"/>
<rect x="31" y="38" width="4" height="4" fill="#f29c1f"/>
<rect x="38" y="38" width="4" height="4" fill="#f29c1f"/>
<rect x="45" y="38" width="4" height="4" fill="#71c285"/>
<path d="m24 40h-18c-0.552 0-1-0.447-1-1s0.448-1 1-1h18c0.552 0 1 0.447 1 1s-0.448 1-1 1z" fill="#6d6d6e"/>
<rect x="8" y="21" width="14" height="18" fill="#f0ede0"/>
<path d="m16 36h-5c-0.552 0-1-0.447-1-1s0.448-1 1-1h5c0.552 0 1 0.447 1 1s-0.448 1-1 1z" fill="#d4c3a5"/>
<path d="m19 36c-0.26 0-0.52-0.11-0.71-0.29-0.18-0.19-0.29-0.45-0.29-0.71s0.11-0.521 0.29-0.71c0.38-0.37 1.05-0.37 1.42 0 0.18 0.189 0.29 0.45 0.29 0.71s-0.11 0.52-0.29 0.71c-0.19 0.18-0.45 0.29-0.71 0.29z" fill="#d4c3a5"/>
<path d="m19 26h-5c-0.552 0-1-0.447-1-1s0.448-1 1-1h5c0.552 0 1 0.447 1 1s-0.448 1-1 1z" fill="#d4c3a5"/>
<path d="m39 13h-5c-0.552 0-1-0.447-1-1s0.448-1 1-1h5c0.552 0 1 0.447 1 1s-0.448 1-1 1z" fill="#70845a"/>
<path d="m39 17h-5c-0.552 0-1-0.447-1-1s0.448-1 1-1h5c0.552 0 1 0.447 1 1s-0.448 1-1 1z" fill="#70845a"/>
<path d="m19 31h-1c-0.552 0-1-0.447-1-1s0.448-1 1-1h1c0.552 0 1 0.447 1 1s-0.448 1-1 1z" fill="#d4c3a5"/>
<path d="m12 31h-1c-0.552 0-1-0.447-1-1s0.448-1 1-1h1c0.552 0 1 0.447 1 1s-0.448 1-1 1z" fill="#d4c3a5"/>
<path d="m11 26c-0.26 0-0.52-0.11-0.71-0.29-0.18-0.19-0.29-0.44-0.29-0.71 0-0.26 0.11-0.521 0.29-0.71 0.37-0.37 1.04-0.37 1.42 0 0.18 0.189 0.29 0.45 0.29 0.71 0 0.27-0.11 0.52-0.29 0.71-0.19 0.18-0.45 0.29-0.71 0.29z" fill="#d4c3a5"/>
<path d="m15 31c-0.26 0-0.52-0.11-0.71-0.29-0.18-0.19-0.29-0.45-0.29-0.71 0-0.271 0.11-0.521 0.29-0.71 0.38-0.37 1.04-0.37 1.42 0 0.18 0.189 0.29 0.45 0.29 0.71s-0.11 0.52-0.29 0.71c-0.19 0.18-0.45 0.29-0.71 0.29z" fill="#d4c3a5"/>
<rect x="3" width="22" height="13" fill="#ecf0f1"/>
<rect x="5" y="2" width="18" height="9" fill="#94b571"/>
<g fill="#70845a">
<path d="m8.382 3.077c-0.244-0.101-0.52-0.101-0.764 0-0.123 0.051-0.233 0.124-0.326 0.217l-0.999 0.999c-0.391 0.391-0.391 1.023 0 1.414 0.195 0.195 0.451 0.293 0.707 0.293v3c0 0.553 0.448 1 1 1s1-0.447 1-1v-5c0-0.13-0.027-0.26-0.077-0.382-0.101-0.245-0.296-0.44-0.541-0.541z"/>
<path d="m17.382 3.077c-0.244-0.101-0.52-0.101-0.764 0-0.123 0.051-0.233 0.124-0.326 0.217l-0.999 0.999c-0.391 0.391-0.391 1.023 0 1.414 0.195 0.195 0.451 0.293 0.707 0.293v3c0 0.553 0.448 1 1 1s1-0.447 1-1v-5c0-0.13-0.027-0.26-0.077-0.382-0.101-0.245-0.296-0.44-0.541-0.541z"/>
<path d="m12.293 7.293-1 1c-0.391 0.391-0.391 1.023 0 1.414 0.195 0.195 0.451 0.293 0.707 0.293s0.512-0.098 0.707-0.293l1-1c0.391-0.391 0.391-1.023 0-1.414s-1.023-0.391-1.414 0z"/>
<path d="m21.923 3.618c-0.101-0.245-0.296-0.44-0.541-0.541-0.244-0.101-0.52-0.101-0.764 0-0.123 0.051-0.233 0.124-0.326 0.217l-0.999 0.999c-0.391 0.391-0.391 1.023 0 1.414 0.195 0.195 0.451 0.293 0.707 0.293v3c0 0.553 0.448 1 1 1s1-0.447 1-1v-5c0-0.13-0.027-0.26-0.077-0.382z"/>
</g>
</g>
<g transform="matrix(.26458 0 0 .26458 342.23 -197.43)" fill="#e74a4b">
<g fill="#e74a4b">
<g fill="#e74a4b">
<path d="m267.92 119.46c-0.425-3.778-4.83-6.617-8.639-6.617-12.315 0-23.243-7.231-27.826-18.414-4.682-11.454-1.663-24.812 7.515-33.231 2.889-2.641 3.24-7.062 0.817-10.133-6.303-8.004-13.467-15.234-21.289-21.5-3.063-2.458-7.557-2.116-10.213 0.825-8.01 8.871-22.398 12.168-33.516 7.529-11.57-4.867-18.866-16.591-18.152-29.176 0.235-3.953-2.654-7.39-6.595-7.849-10.038-1.161-20.164-1.197-30.232-0.08-3.896 0.43-6.785 3.786-6.654 7.689 0.438 12.461-6.946 23.98-18.401 28.672-10.985 4.487-25.272 1.218-33.266-7.574-2.642-2.896-7.063-3.252-10.141-0.853-8.054 6.319-15.379 13.555-21.74 21.493-2.481 3.086-2.116 7.559 0.802 10.214 9.353 8.47 12.373 21.944 7.514 33.53-4.639 11.046-16.109 18.165-29.24 18.165-4.261-0.137-7.296 2.723-7.762 6.597-1.182 10.096-1.196 20.383-0.058 30.561 0.422 3.794 4.961 6.608 8.812 6.608 11.702-0.299 22.937 6.946 27.65 18.415 4.698 11.454 1.678 24.804-7.514 33.23-2.875 2.641-3.24 7.055-0.817 10.126 6.244 7.953 13.409 15.19 21.259 21.508 3.079 2.481 7.559 2.131 10.228-0.81 8.04-8.893 22.427-12.184 33.501-7.536 11.599 4.852 18.895 16.575 18.181 29.167-0.233 3.955 2.67 7.398 6.595 7.85 5.135 0.599 10.301 0.898 15.481 0.898 4.917 0 9.835-0.27 14.752-0.817 3.897-0.43 6.784-3.786 6.653-7.696-0.451-12.454 6.946-23.973 18.386-28.657 11.059-4.517 25.286-1.211 33.281 7.572 2.657 2.89 7.047 3.239 10.142 0.848 8.039-6.304 15.349-13.534 21.74-21.494 2.48-3.079 2.13-7.559-0.803-10.213-9.353-8.47-12.388-21.946-7.529-33.524 4.568-10.899 15.612-18.217 27.491-18.217l1.662 0.043c3.853 0.313 7.398-2.655 7.865-6.588 1.184-10.105 1.198-20.383 0.06-30.561zm-133.32 60.03c-24.718 0-44.824-20.106-44.824-44.824 0-24.717 20.106-44.824 44.824-44.824 24.717 0 44.823 20.107 44.823 44.824 0 24.718-20.106 44.824-44.823 44.824z" clip-rule="evenodd" fill="#e74a4b" fill-rule="evenodd"/>
</g>
</g>
</g>
<path d="m659.6-647.36c33.138 637.25-416.9 359.18-416.9 359.18" fill="none" filter="url(#m)" opacity=".807" stroke="#000" stroke-width=".3292px"/>
<path d="m106.73-539.09c0 225.47 0.43437 283.54 0.43437 283.54l665.65 0.89673" fill="none" marker-end="url(#c)" marker-mid="url(#c)" stroke="#f37e4a" stroke-linejoin="round" stroke-width="9.012"/>
<path d="m5.7899-524.81 35.188-1.2699s0.93903 76.665 0.93903 371.54c1.928 68.363 1.928 240.72 1.928 240.72h125.49v31.75" fill="none" marker-end="url(#a)" marker-mid="url(#a)" marker-start="url(#a)" stroke="#e74a4b" stroke-linejoin="round" stroke-width="10.137"/>
<path d="m535.21 86.179-0.54602-171.74-338.82-2.4514s0.96803 55.587 0.96803-165.36c1.241-52.036 4.2648-251.61 4.2648-251.61l261.18 1.5231 0.37721 43.834" fill="none" marker-end="url(#b)" marker-mid="url(#b)" marker-start="url(#b)" stroke="#254e70" stroke-linecap="round" stroke-linejoin="round" stroke-width="9.7787" style="paint-order:stroke fill markers"/>
<path d="m40.821-154.21h146.65l93.738 1.5119 30.238-31.75" fill="none" marker-end="url(#f)" marker-mid="url(#i)" marker-start="url(#l)" stroke="#e74a4b" stroke-width="8.4667"/>
<path d="m365.64 264.53 1.5119-92.226 1.5119-93.738-31.75-30.238" fill="none" marker-end="url(#e)" marker-mid="url(#h)" marker-start="url(#k)" stroke="#856084" stroke-width="8.4667"/>
<g transform="matrix(.35278 0 0 .35278 711.91 51.707)">
<path d="m464 216c0 26.508-21.492 48-48 48h-368c-26.508 0-48-21.492-48-48 0.097656-26.469 21.531-47.902 48-48h368c26.469 0.0977 47.902 21.531 48 48z" fill="#78b9eb"/>
<g fill="#ffde55">
<path d="m256 216c0 13.254-10.746 24-24 24s-24-10.746-24-24 10.746-24 24-24 24 10.746 24 24z"/>
<path d="m176 216c0 13.254-10.746 24-24 24s-24-10.746-24-24 10.746-24 24-24 24 10.746 24 24z"/>
<path d="m96 216c0 13.254-10.746 24-24 24s-24-10.746-24-24 10.746-24 24-24 24 10.746 24 24z"/>
<path d="m336 216c0 13.254-10.746 24-24 24s-24-10.746-24-24 10.746-24 24-24 24 10.746 24 24z"/>
<path d="m416 216c0 13.254-10.746 24-24 24s-24-10.746-24-24 10.746-24 24-24 24 10.746 24 24z"/>
</g>
<path d="m56 0h160v112h-160z" fill="#ffb655"/>
<path d="m56 112h160v32h-160z" fill="#d1d3d4"/>
<path d="m248 0h160v112h-160z" fill="#ffb655"/>
<path d="m248 112h160v32h-160z" fill="#d1d3d4"/>
<path d="m112 0h48v48h-48z" fill="#ff6243"/>
<path d="m304 0h48v48h-48z" fill="#ff6243"/>
<path d="m408 0v112h-108.24c36.113-33.09 67.766-70.738 94.16-112z" fill="#ffa733"/>
<path d="m216 0v112h-108.24c36.113-33.09 67.766-70.738 94.16-112z" fill="#ffa733"/>
<path d="m408 112v32h-145.28c12.562-10.078 24.961-20.801 37.043-32z" fill="#bcbec0"/>
<path d="m216 112v32h-145.28c12.562-10.078 24.961-20.801 37.043-32z" fill="#bcbec0"/>
<path d="m451.68 184h-439.36c9.0508-10.199 22.043-16.027 35.68-16h368c13.637-0.0273 26.629 5.8008 35.68 16z" fill="#5aaae7"/>
</g>
<g transform="matrix(.19668 0 0 .18486 213.47 -39.015)">
<path d="m151.15 412.18 153.03-153.03c-10.602-21.716-28.337-39.583-49.735-50.141l-153.23 153.23c-18.105-7.503-30.208-5.959-41.366-1.236l-22.396-22.387-37.446 37.447 22.387 22.396c-10.884 25.697-5.888 56.523 15.06 77.48 20.957 20.948 51.783 25.944 77.489 15.06l22.457 21.054 37.385-36.114-22.396-22.387c4.723-11.168 6.276-23.27-1.236-41.376" fill="#34485c"/>
<path d="m314.68 298.58-21.522 21.522c-8.801 8.801-8.801 23.058 0 31.859l9.039 9.039 149.8-149.81-18.705-18.706 49.938-49.938 12.482 12.482 12.465-12.465c5.111-6.912 5.261-18.105 0-25l-112.36-112.36c-6.903-6.903-18.088-6.903-25 0l-12.465 12.465 12.482 12.491-49.938 49.938-18.706-18.714-149.81 149.8 9.039 9.048c8.801 8.792 23.058 8.792 31.859 0l21.522-21.53c52.047 2.066 96.715 46.813 99.875 99.875" fill="#576d7e"/>
<g fill="#34485c">
<path d="m470.75 188.82c-2.26 0-4.52-0.865-6.241-2.586l-137.36-137.37c-3.443-3.443-3.443-9.031 0-12.482 3.452-3.443 9.039-3.443 12.482 0l137.36 137.37c3.452 3.452 3.452 9.031 0 12.482-1.721 1.721-3.981 2.587-6.241 2.587"/>
<path d="m483.24 151.37c-2.26 0-4.52-0.865-6.241-2.587l-112.38-112.38c-3.452-3.452-3.452-9.039 0-12.482 3.443-3.452 9.031-3.452 12.482 0l112.38 112.38c3.452 3.452 3.452 9.031 0 12.482-1.721 1.721-3.981 2.586-6.241 2.586"/>
<path d="m433.3 201.31c-2.26 0-4.52-0.865-6.241-2.586l-112.38-112.38c-3.452-3.452-3.452-9.039 0-12.482 3.443-3.452 9.031-3.452 12.482 0l112.38 112.38c3.452 3.452 3.452 9.031 0 12.482-1.722 1.722-3.981 2.587-6.241 2.587"/>
</g>
<path d="m168.54 353.68c-2.26 0-4.52-0.865-6.241-2.586-3.452-3.452-3.452-9.031 0-12.482l83.721-83.721c3.452-3.452 9.039-3.452 12.482 0 3.452 3.443 3.452 9.031 0 12.482l-83.721 83.721c-1.721 1.721-3.981 2.586-6.241 2.586" fill="#576d7e"/>
<path d="m353.1 185.4c0 14.627-11.855 26.483-26.483 26.483s-26.483-11.855-26.483-26.483 11.855-26.483 26.483-26.483 26.483 11.856 26.483 26.483" fill="#34485c"/>
<path d="m62.416 450.97c-13.789-13.789-13.789-36.149 0-49.938s36.149-13.789 49.938 0 13.789 36.149 0 49.938-36.149 13.789-49.938 0" fill="#576d7e"/>
</g>
<g transform="matrix(.21918 0 0 .20289 110.17 147.97)">
<path d="m215.43 47.832 56.57 56.57-135.77 135.77-56.57-56.57z" fill="#195c85"/>
<path d="m416 184-32 32-152-119.77 56.566-56.566z" fill="#195c85"/>
<path d="m0 416h304v48h-304z" fill="#32b1cc"/>
<path d="m384 240c-17.672 0-32 14.328-32 32v80l32-16v-64h48v64l32 16v-80c0-17.672-14.328-32-32-32z" fill="#32b1cc"/>
<path d="m56 232h80v184h-80z" fill="#195c85"/>
<path d="m160 232c0 35.348-28.652 64-64 64-35.348 0-64-28.652-64-64s28.652-64 64-64c35.348 0 64 28.652 64 64z" fill="#d9176c"/>
<path d="m128 232c0 17.672-14.328 32-32 32-17.672 0-32-14.328-32-32 0-17.672 14.328-32 32-32 17.672 0 32 14.328 32 32z" fill="#fcf05a"/>
<path d="m320 64c0 35.348-28.652 64-64 64s-64-28.652-64-64 28.652-64 64-64 64 28.652 64 64z" fill="#d9176c"/>
<path d="m288 64c0 17.672-14.328 32-32 32-17.672 0-32-14.328-32-32s14.328-32 32-32c17.672 0 32 14.328 32 32z" fill="#fcf05a"/>
<path d="m408 176c17.672 0 32 14.328 32 32v40h-64v-40c0-17.672 14.328-32 32-32z" fill="#d9176c"/>
<g fill="#32b1cc">
<path d="m88 392c-4.418 0-8-3.582-8-8v-48c0-4.418 3.582-8 8-8s8 3.582 8 8v48c0 4.418-3.582 8-8 8z"/>
<path d="m152 168c-3.2344 0-6.1523-1.9492-7.3906-4.9375-1.2383-2.9883-0.55078-6.4297 1.7344-8.7188l32-32c3.1406-3.0312 8.1289-2.9883 11.215 0.0977 3.0859 3.0859 3.1289 8.0742 0.0977 11.215l-32 32c-1.5 1.5-3.5352 2.3437-5.6563 2.3437z"/>
</g>
</g>
<path d="m640.19 260.66-1.5119-71.059 1e-5 -175.38 151.19 3.0238" fill="none" marker-end="url(#d)" marker-mid="url(#g)" marker-start="url(#j)" stroke="#84e296" stroke-width="8.4667"/>
</g>
</g>
</svg>
