<?xml version="1.0" encoding="UTF-8" standalone="no"?>
<svg
   xmlns:dc="http://purl.org/dc/elements/1.1/"
   xmlns:cc="http://creativecommons.org/ns#"
   xmlns:rdf="http://www.w3.org/1999/02/22-rdf-syntax-ns#"
   xmlns:svg="http://www.w3.org/2000/svg"
   xmlns="http://www.w3.org/2000/svg"
   xmlns:xlink="http://www.w3.org/1999/xlink"
   id="svg8"
   version="1.1"
   viewBox="0 0 238.125 185.20833"
   height="700"
   width="900">
  <defs
     id="defs2">
    <marker
       orient="auto"
       refY="0"
       refX="0"
       id="marker16323"
       style="overflow:visible">
      <path
         id="path16321"
         d="m -2.5,-1 c 0,2.76 -2.24,5 -5,5 -2.76,0 -5,-2.24 -5,-5 0,-2.76 2.24,-5 5,-5 2.76,0 5,2.24 5,5 z"
         style="fill:#e74a4b;fill-opacity:1;fill-rule:evenodd;stroke:#e74a4b;stroke-width:1.00000003pt;stroke-opacity:1"
         transform="matrix(0.2,0,0,0.2,1.48,0.2)" />
    </marker>
    <marker
       orient="auto"
       refY="0"
       refX="0"
       id="marker16229"
       style="overflow:visible">
      <path
         id="path16227"
         d="m -2.5,-1 c 0,2.76 -2.24,5 -5,5 -2.76,0 -5,-2.24 -5,-5 0,-2.76 2.24,-5 5,-5 2.76,0 5,2.24 5,5 z"
         style="fill:#e74a4b;fill-opacity:1;fill-rule:evenodd;stroke:#e74a4b;stroke-width:1.00000003pt;stroke-opacity:1"
         transform="matrix(0.2,0,0,0.2,1.48,0.2)" />
    </marker>
    <marker
       orient="auto"
       refY="0"
       refX="0"
       id="marker16147"
       style="overflow:visible">
      <path
         id="path16145"
         d="m -2.5,-1 c 0,2.76 -2.24,5 -5,5 -2.76,0 -5,-2.24 -5,-5 0,-2.76 2.24,-5 5,-5 2.76,0 5,2.24 5,5 z"
         style="fill:#e74a4b;fill-opacity:1;fill-rule:evenodd;stroke:#e74a4b;stroke-width:1.00000003pt;stroke-opacity:1"
         transform="matrix(0.2,0,0,0.2,1.48,0.2)" />
    </marker>
    <marker
       style="overflow:visible"
       id="DotS"
       refX="0"
       refY="0"
       orient="auto">
      <path
         transform="matrix(0.2,0,0,0.2,1.48,0.2)"
         style="fill:#f37e4a;fill-opacity:1;fill-rule:evenodd;stroke:#f37e4a;stroke-width:1.00000003pt;stroke-opacity:1"
         d="m -2.5,-1 c 0,2.76 -2.24,5 -5,5 -2.76,0 -5,-2.24 -5,-5 0,-2.76 2.24,-5 5,-5 2.76,0 5,2.24 5,5 z"
         id="path6458" />
    </marker>
    <marker
       style="overflow:visible"
       id="marker6709"
       refX="0"
       refY="0"
       orient="auto">
      <path
         transform="matrix(0.8,0,0,0.8,5.92,0.8)"
         style="fill:#e74a4b;fill-opacity:1;fill-rule:evenodd;stroke:#e74a4b;stroke-width:1.00000003pt;stroke-opacity:1"
         d="m -2.5,-1 c 0,2.76 -2.24,5 -5,5 -2.76,0 -5,-2.24 -5,-5 0,-2.76 2.24,-5 5,-5 2.76,0 5,2.24 5,5 z"
         id="path6707" />
    </marker>
    <marker
       style="overflow:visible"
       id="marker6675"
       refX="0"
       refY="0"
       orient="auto">
      <path
         transform="matrix(0.8,0,0,0.8,5.92,0.8)"
         style="fill:#e74a4b;fill-opacity:1;fill-rule:evenodd;stroke:#e74a4b;stroke-width:1.00000003pt;stroke-opacity:1"
         d="m -2.5,-1 c 0,2.76 -2.24,5 -5,5 -2.76,0 -5,-2.24 -5,-5 0,-2.76 2.24,-5 5,-5 2.76,0 5,2.24 5,5 z"
         id="path6673" />
    </marker>
    <marker
       style="overflow:visible"
       id="DotL"
       refX="0"
       refY="0"
       orient="auto">
      <path
         transform="matrix(0.8,0,0,0.8,5.92,0.8)"
         style="fill:#e74a4b;fill-opacity:1;fill-rule:evenodd;stroke:#e74a4b;stroke-width:1.00000003pt;stroke-opacity:1"
         d="m -2.5,-1 c 0,2.76 -2.24,5 -5,5 -2.76,0 -5,-2.24 -5,-5 0,-2.76 2.24,-5 5,-5 2.76,0 5,2.24 5,5 z"
         id="path6452" />
    </marker>
    <linearGradient
       id="linearGradient6341">
      <stop
         id="stop6337"
         offset="0"
         style="stop-color:#e74a4b;stop-opacity:1;" />
      <stop
         id="stop6339"
         offset="1"
         style="stop-color:#e74a4b;stop-opacity:0;" />
    </linearGradient>
    <linearGradient
       gradientUnits="userSpaceOnUse"
       y2="134.3826"
       x2="268.76096"
       y1="134.3826"
       x1="0.0027905097"
       id="linearGradient6343"
       xlink:href="#linearGradient6341" />
    <filter
       height="3.1528308"
       y="-1.0764155"
       width="3.1575744"
       x="-1.0787871"
       id="filter6385"
       style="color-interpolation-filters:sRGB">
      <feGaussianBlur
         id="feGaussianBlur6387"
         stdDeviation="188.17892" />
    </filter>
    <marker
       style="overflow:visible"
       id="DotS-6"
       refX="0"
       refY="0"
       orient="auto">
      <path
         transform="matrix(0.2,0,0,0.2,1.48,0.2)"
         style="fill:#e74a4b;fill-opacity:1;fill-rule:evenodd;stroke:#e74a4b;stroke-width:1.00000003pt;stroke-opacity:1"
         d="m -2.5,-1 c 0,2.76 -2.24,5 -5,5 -2.76,0 -5,-2.24 -5,-5 0,-2.76 2.24,-5 5,-5 2.76,0 5,2.24 5,5 z"
         id="path6458-6" />
    </marker>
    <marker
       style="overflow:visible"
       id="marker6899"
       refX="0"
       refY="0"
       orient="auto">
      <path
         transform="matrix(0.2,0,0,0.2,1.48,0.2)"
         style="fill:#e74a4b;fill-opacity:1;fill-rule:evenodd;stroke:#e74a4b;stroke-width:1.00000003pt;stroke-opacity:1"
         d="m -2.5,-1 c 0,2.76 -2.24,5 -5,5 -2.76,0 -5,-2.24 -5,-5 0,-2.76 2.24,-5 5,-5 2.76,0 5,2.24 5,5 z"
         id="path6897" />
    </marker>
    <marker
       style="overflow:visible"
       id="marker6903"
       refX="0"
       refY="0"
       orient="auto">
      <path
         transform="matrix(0.2,0,0,0.2,1.48,0.2)"
         style="fill:#e74a4b;fill-opacity:1;fill-rule:evenodd;stroke:#e74a4b;stroke-width:1.00000003pt;stroke-opacity:1"
         d="m -2.5,-1 c 0,2.76 -2.24,5 -5,5 -2.76,0 -5,-2.24 -5,-5 0,-2.76 2.24,-5 5,-5 2.76,0 5,2.24 5,5 z"
         id="path6901" />
    </marker>
    <marker
       style="overflow:visible"
       id="DotS-3"
       refX="0"
       refY="0"
       orient="auto">
      <path
         transform="matrix(0.2,0,0,0.2,1.48,0.2)"
         style="fill:#254e70;fill-opacity:1;fill-rule:evenodd;stroke:#254e70;stroke-width:1.00000003pt;stroke-opacity:1"
         d="m -2.5,-1 c 0,2.76 -2.24,5 -5,5 -2.76,0 -5,-2.24 -5,-5 0,-2.76 2.24,-5 5,-5 2.76,0 5,2.24 5,5 z"
         id="path6458-4" />
    </marker>
    <marker
       style="overflow:visible"
       id="marker10870"
       refX="0"
       refY="0"
       orient="auto">
      <path
         transform="matrix(0.2,0,0,0.2,1.48,0.2)"
         style="fill:#f37e4a;fill-opacity:1;fill-rule:evenodd;stroke:#f37e4a;stroke-width:1.00000003pt;stroke-opacity:1"
         d="m -2.5,-1 c 0,2.76 -2.24,5 -5,5 -2.76,0 -5,-2.24 -5,-5 0,-2.76 2.24,-5 5,-5 2.76,0 5,2.24 5,5 z"
         id="path10868" />
    </marker>
    <marker
       style="overflow:visible"
       id="marker10874"
       refX="0"
       refY="0"
       orient="auto">
      <path
         transform="matrix(0.2,0,0,0.2,1.48,0.2)"
         style="fill:#f37e4a;fill-opacity:1;fill-rule:evenodd;stroke:#f37e4a;stroke-width:1.00000003pt;stroke-opacity:1"
         d="m -2.5,-1 c 0,2.76 -2.24,5 -5,5 -2.76,0 -5,-2.24 -5,-5 0,-2.76 2.24,-5 5,-5 2.76,0 5,2.24 5,5 z"
         id="path10872" />
    </marker>
    <marker
       style="overflow:visible"
       id="DotS-3-5"
       refX="0"
       refY="0"
       orient="auto">
      <path
         transform="matrix(0.2,0,0,0.2,1.48,0.2)"
         style="fill:#84e296;fill-opacity:1;fill-rule:evenodd;stroke:#84e296;stroke-width:1.00000003pt;stroke-opacity:1"
         d="m -2.5,-1 c 0,2.76 -2.24,5 -5,5 -2.76,0 -5,-2.24 -5,-5 0,-2.76 2.24,-5 5,-5 2.76,0 5,2.24 5,5 z"
         id="path6458-4-4" />
    </marker>
    <marker
       style="overflow:visible"
       id="marker19363"
       refX="0"
       refY="0"
       orient="auto">
      <path
         transform="matrix(0.2,0,0,0.2,1.48,0.2)"
         style="fill:#254e70;fill-opacity:1;fill-rule:evenodd;stroke:#254e70;stroke-width:1.00000003pt;stroke-opacity:1"
         d="m -2.5,-1 c 0,2.76 -2.24,5 -5,5 -2.76,0 -5,-2.24 -5,-5 0,-2.76 2.24,-5 5,-5 2.76,0 5,2.24 5,5 z"
         id="path19361" />
    </marker>
    <marker
       style="overflow:visible"
       id="marker19367"
       refX="0"
       refY="0"
       orient="auto">
      <path
         transform="matrix(0.2,0,0,0.2,1.48,0.2)"
         style="fill:#254e70;fill-opacity:1;fill-rule:evenodd;stroke:#254e70;stroke-width:1.00000003pt;stroke-opacity:1"
         d="m -2.5,-1 c 0,2.76 -2.24,5 -5,5 -2.76,0 -5,-2.24 -5,-5 0,-2.76 2.24,-5 5,-5 2.76,0 5,2.24 5,5 z"
         id="path19365" />
    </marker>
    <marker
       orient="auto"
       refY="0"
       refX="0"
       id="marker16147-2"
       style="overflow:visible">
      <path
         id="path16145-0"
         d="m -2.5,-1 c 0,2.76 -2.24,5 -5,5 -2.76,0 -5,-2.24 -5,-5 0,-2.76 2.24,-5 5,-5 2.76,0 5,2.24 5,5 z"
         style="fill:#856084;fill-opacity:1;fill-rule:evenodd;stroke:#856084;stroke-width:1.00000003pt;stroke-opacity:1"
         transform="matrix(0.2,0,0,0.2,1.48,0.2)" />
    </marker>
    <marker
       orient="auto"
       refY="0"
       refX="0"
       id="marker16229-3"
       style="overflow:visible">
      <path
         id="path16227-4"
         d="m -2.5,-1 c 0,2.76 -2.24,5 -5,5 -2.76,0 -5,-2.24 -5,-5 0,-2.76 2.24,-5 5,-5 2.76,0 5,2.24 5,5 z"
         style="fill:#856084;fill-opacity:1;fill-rule:evenodd;stroke:#856084;stroke-width:1.00000003pt;stroke-opacity:1"
         transform="matrix(0.2,0,0,0.2,1.48,0.2)" />
    </marker>
    <marker
       orient="auto"
       refY="0"
       refX="0"
       id="marker16323-7"
       style="overflow:visible">
      <path
         id="path16321-6"
         d="m -2.5,-1 c 0,2.76 -2.24,5 -5,5 -2.76,0 -5,-2.24 -5,-5 0,-2.76 2.24,-5 5,-5 2.76,0 5,2.24 5,5 z"
         style="fill:#856084;fill-opacity:1;fill-rule:evenodd;stroke:#856084;stroke-width:1.00000003pt;stroke-opacity:1"
         transform="matrix(0.2,0,0,0.2,1.48,0.2)" />
    </marker>
    <marker
       orient="auto"
       refY="0"
       refX="0"
       id="marker16147-2-3"
       style="overflow:visible">
      <path
         id="path16145-0-9"
         d="m -2.5,-1 c 0,2.76 -2.24,5 -5,5 -2.76,0 -5,-2.24 -5,-5 0,-2.76 2.24,-5 5,-5 2.76,0 5,2.24 5,5 z"
         style="fill:#84e296;fill-opacity:1;fill-rule:evenodd;stroke:#84e296;stroke-width:1.00000003pt;stroke-opacity:1"
         transform="matrix(0.2,0,0,0.2,1.48,0.2)" />
    </marker>
    <marker
       orient="auto"
       refY="0"
       refX="0"
       id="marker16229-3-0"
       style="overflow:visible">
      <path
         id="path16227-4-5"
         d="m -2.5,-1 c 0,2.76 -2.24,5 -5,5 -2.76,0 -5,-2.24 -5,-5 0,-2.76 2.24,-5 5,-5 2.76,0 5,2.24 5,5 z"
         style="fill:#84e296;fill-opacity:1;fill-rule:evenodd;stroke:#84e296;stroke-width:1.00000003pt;stroke-opacity:1"
         transform="matrix(0.2,0,0,0.2,1.48,0.2)" />
    </marker>
    <marker
       orient="auto"
       refY="0"
       refX="0"
       id="marker16323-7-0"
       style="overflow:visible">
      <path
         id="path16321-6-3"
         d="m -2.5,-1 c 0,2.76 -2.24,5 -5,5 -2.76,0 -5,-2.24 -5,-5 0,-2.76 2.24,-5 5,-5 2.76,0 5,2.24 5,5 z"
         style="fill:#84e296;fill-opacity:1;fill-rule:evenodd;stroke:#84e296;stroke-width:1.00000003pt;stroke-opacity:1"
         transform="matrix(0.2,0,0,0.2,1.48,0.2)" />
    </marker>
  </defs>
  <metadata
     id="metadata5">
    <rdf:RDF>
      <cc:Work
         rdf:about="">
        <dc:format>image/svg+xml</dc:format>
        <dc:type
           rdf:resource="http://purl.org/dc/dcmitype/StillImage" />
        <dc:title></dc:title>
      </cc:Work>
    </rdf:RDF>
  </metadata>
  <g
     transform="translate(0,-111.79171)"
     id="layer1" />
  <g
     transform="matrix(0.3331888,0,0,0.3331888,12.640321,85.632957)"
     id="g10496">
    <path
       transform="matrix(0.78374336,0,0,0.78374336,20.517975,62.089098)"
       style="opacity:0.80699978;fill:none;stroke:#000000;stroke-width:0.32920176px;stroke-linecap:butt;stroke-linejoin:miter;stroke-opacity:1;filter:url(#filter6385)"
       d="m 659.6017,-647.35897 c 33.13831,637.250676 -416.90131,359.17765 -416.90131,359.17765"
       id="path6379" />
    <g
       transform="translate(-40.10782,19.251754)"
       id="g15389">
      <g
         transform="matrix(0.14331075,0,0,0.13292759,567.18446,-271.65578)"
         id="g5387">
        <path
           style="fill:#acabb1"
           d="m 16,0 h 432 c 8.83594,0 16,7.164062 16,16 v 432 c 0,8.83594 -7.16406,16 -16,16 H 16 C 7.164062,464 0,456.83594 0,448 V 16 C 0,7.164062 7.164062,0 16,0 Z m 0,0"
           id="path5223" />
        <path
           style="fill:#898890"
           d="M 464,47.839844 V 448 c -0.0273,8.82422 -7.17578,15.97266 -16,16 H 16 C 12.167969,464.02344 8.464844,462.625 5.601562,460.07812 108.23828,424.48047 390.64062,304.96094 464,47.839844 Z m 0,0"
           id="path5225" />
        <path
           style="fill:#ffb655"
           d="m 144,208 c 0.0312,2.67969 -0.18359,5.35937 -0.64063,8 C 139.40625,243.53516 115.81641,263.97656 88,263.97656 60.183594,263.97656 36.59375,243.53516 32.640625,216 32.183594,213.35937 31.96875,210.67969 32,208 c -0.02734,-2.67969 0.1875,-5.35938 0.640625,-8 1.25,-9.25391 4.886719,-18.02344 10.558594,-25.44141 3.121093,-4.39843 6.960937,-8.23828 11.359375,-11.35937 C 61.992188,157.53516 70.75,153.875 80,152.55859 c 2.648438,-0.39062 5.324219,-0.57812 8,-0.55859 2.679688,-0.0273 5.359375,0.18359 8,0.64062 9.25391,1.25 18.02344,4.88672 25.44141,10.5586 4.39843,3.12109 8.23828,6.96094 11.35937,11.35937 5.66406,7.4336 9.32422,16.19141 10.64063,25.44141 0.39062,2.64844 0.57812,5.32422 0.55859,8 z m 0,0"
           id="path5227" />
        <path
           style="fill:#ffde55"
           d="m 32,48 h 112 v 64 H 32 Z m 0,0"
           id="path5229" />
        <path
           style="fill:#ffde55"
           d="m 176,48 h 112 v 64 H 176 Z m 0,0"
           id="path5231" />
        <path
           style="fill:#ffde55"
           d="m 320,48 h 112 v 64 H 320 Z m 0,0"
           id="path5233" />
        <path
           style="fill:#5aaae7"
           d="m 64,296 v 120 h 48 V 296 Z m 0,0"
           id="path5235" />
        <path
           style="fill:#ff6243"
           d="m 160,288 c -13.25391,0 -24,10.74609 -24,24 0,13.25391 10.74609,24 24,24 13.25391,0 24,-10.74609 24,-24 0,-13.25391 -10.74609,-24 -24,-24 z m 0,0"
           id="path5237" />
        <path
           style="fill:#e6e7e8"
           d="m 216,320 h 32 v 32 h -32 z m 0,0"
           id="path5239" />
        <path
           style="fill:#ff5023"
           d="m 216,384 h 32 v 32 h -32 z m 0,0"
           id="path5241" />
        <path
           style="fill:#e6e7e8"
           d="m 360,320 h 32 v 32 h -32 z m 0,0"
           id="path5243" />
        <path
           style="fill:#ff5023"
           d="m 360,384 h 32 v 32 h -32 z m 0,0"
           id="path5245" />
        <g
           style="fill:#ee8700"
           id="g5269">
          <path
             d="M 96,152.64062 V 176 H 80 v -23.44141 c 2.648438,-0.39062 5.324219,-0.57812 8,-0.55859 2.679688,-0.0273 5.359375,0.18359 8,0.64062 z m 0,0"
             id="path5247" />
          <path
             d="M 71.039062,179.67969 59.679688,191.03906 43.199219,174.55859 c 3.121093,-4.39843 6.960937,-8.23828 11.359375,-11.35937 z m 0,0"
             id="path5249" />
          <path
             d="m 56,200 v 16 H 32.640625 C 32.183594,213.35937 31.96875,210.67969 32,208 c -0.02734,-2.67969 0.1875,-5.35938 0.640625,-8 z m 0,0"
             id="path5251" />
          <path
             d="m 144,208 c 0.0312,2.67969 -0.18359,5.35937 -0.64063,8 H 120 v -16 h 23.44141 c 0.39062,2.64844 0.57812,5.32422 0.55859,8 z m 0,0"
             id="path5253" />
          <path
             d="m 132.80078,174.55859 -16.48047,16.48047 -11.35937,-11.35937 16.48047,-16.48047 c 4.39843,3.12109 8.23828,6.96094 11.35937,11.35937 z m 0,0"
             id="path5255" />
          <path
             d="m 80,200 h 16 v 40 H 80 Z m 0,0"
             id="path5257" />
          <path
             d="M 96,152.64062 V 176 H 80 v -23.44141 c 2.648438,-0.39062 5.324219,-0.57812 8,-0.55859 2.679688,-0.0273 5.359375,0.18359 8,0.64062 z m 0,0"
             id="path5259" />
          <path
             d="M 71.039062,179.67969 59.679688,191.03906 43.199219,174.55859 c 3.121093,-4.39843 6.960937,-8.23828 11.359375,-11.35937 z m 0,0"
             id="path5261" />
          <path
             d="m 56,200 v 16 H 32.640625 C 32.183594,213.35937 31.96875,210.67969 32,208 c -0.02734,-2.67969 0.1875,-5.35938 0.640625,-8 z m 0,0"
             id="path5263" />
          <path
             d="m 144,208 c 0.0312,2.67969 -0.18359,5.35937 -0.64063,8 H 120 v -16 h 23.44141 c 0.39062,2.64844 0.57812,5.32422 0.55859,8 z m 0,0"
             id="path5265" />
          <path
             d="m 132.80078,174.55859 -16.48047,16.48047 -11.35937,-11.35937 16.48047,-16.48047 c 4.39843,3.12109 8.23828,6.96094 11.35937,11.35937 z m 0,0"
             id="path5267" />
        </g>
        <path
           style="fill:#787680"
           d="m 80,200 h 16 v 40 H 80 Z m 0,0"
           id="path5271" />
        <path
           style="fill:#ffb655"
           d="m 288,208 c 0.0312,2.67969 -0.18359,5.35937 -0.64063,8 -3.95312,27.53516 -27.54296,47.97656 -55.35937,47.97656 -27.81641,0 -51.40625,-20.4414 -55.35938,-47.97656 -0.45703,-2.64063 -0.67187,-5.32031 -0.64062,-8 -0.0273,-2.67969 0.1875,-5.35938 0.64062,-8 1.25,-9.25391 4.88672,-18.02344 10.5586,-25.44141 3.12109,-4.39843 6.96094,-8.23828 11.35937,-11.35937 7.4336,-5.66406 16.19141,-9.32422 25.44141,-10.64063 2.64844,-0.39062 5.32422,-0.57812 8,-0.55859 2.67969,-0.0273 5.35937,0.18359 8,0.64062 9.25391,1.25 18.02344,4.88672 25.44141,10.5586 4.39843,3.12109 8.23828,6.96094 11.35937,11.35937 5.66406,7.4336 9.32422,16.19141 10.64063,25.44141 0.39062,2.64844 0.57812,5.32422 0.55859,8 z m 0,0"
           id="path5273" />
        <path
           style="fill:#ee8700"
           d="M 240,152.64062 V 176 h -16 v -23.44141 c 2.64844,-0.39062 5.32422,-0.57812 8,-0.55859 2.67969,-0.0273 5.35937,0.18359 8,0.64062 z m 0,0"
           id="path5275" />
        <path
           style="fill:#ee8700"
           d="m 215.03906,179.67969 -11.35937,11.35937 -16.48047,-16.48047 c 3.12109,-4.39843 6.96094,-8.23828 11.35937,-11.35937 z m 0,0"
           id="path5277" />
        <path
           style="fill:#ee8700"
           d="m 200,200 v 16 h -23.35938 c -0.45703,-2.64063 -0.67187,-5.32031 -0.64062,-8 -0.0273,-2.67969 0.1875,-5.35938 0.64062,-8 z m 0,0"
           id="path5279" />
        <path
           style="fill:#ee8700"
           d="m 288,208 c 0.0312,2.67969 -0.18359,5.35937 -0.64063,8 H 264 v -16 h 23.44141 c 0.39062,2.64844 0.57812,5.32422 0.55859,8 z m 0,0"
           id="path5281" />
        <path
           style="fill:#ee8700"
           d="m 276.80078,174.55859 -16.48047,16.48047 -11.35937,-11.35937 16.48047,-16.48047 c 4.39843,3.12109 8.23828,6.96094 11.35937,11.35937 z m 0,0"
           id="path5283" />
        <path
           style="fill:#ee8700"
           d="m 224,200 h 16 v 40 h -16 z m 0,0"
           id="path5285" />
        <path
           style="fill:#ee8700"
           d="M 240,152.64062 V 176 h -16 v -23.44141 c 2.64844,-0.39062 5.32422,-0.57812 8,-0.55859 2.67969,-0.0273 5.35937,0.18359 8,0.64062 z m 0,0"
           id="path5287" />
        <path
           style="fill:#ee8700"
           d="m 215.03906,179.67969 -11.35937,11.35937 -16.48047,-16.48047 c 3.12109,-4.39843 6.96094,-8.23828 11.35937,-11.35937 z m 0,0"
           id="path5289" />
        <path
           style="fill:#ee8700"
           d="m 200,200 v 16 h -23.35938 c -0.45703,-2.64063 -0.67187,-5.32031 -0.64062,-8 -0.0273,-2.67969 0.1875,-5.35938 0.64062,-8 z m 0,0"
           id="path5291" />
        <path
           style="fill:#ee8700"
           d="m 288,208 c 0.0312,2.67969 -0.18359,5.35937 -0.64063,8 H 264 v -16 h 23.44141 c 0.39062,2.64844 0.57812,5.32422 0.55859,8 z m 0,0"
           id="path5293" />
        <path
           style="fill:#ee8700"
           d="m 276.80078,174.55859 -16.48047,16.48047 -11.35937,-11.35937 16.48047,-16.48047 c 4.39843,3.12109 8.23828,6.96094 11.35937,11.35937 z m 0,0"
           id="path5295" />
        <path
           style="fill:#787680"
           d="m 224,200 h 16 v 40 h -16 z m 0,0"
           id="path5297" />
        <path
           style="fill:#ffb655"
           d="m 432,208 c 0.0312,2.67969 -0.18359,5.35937 -0.64063,8 -3.95312,27.53516 -27.54296,47.97656 -55.35937,47.97656 -27.81641,0 -51.40625,-20.4414 -55.35938,-47.97656 -0.45703,-2.64063 -0.67187,-5.32031 -0.64062,-8 -0.0273,-2.67969 0.1875,-5.35938 0.64062,-8 1.25,-9.25391 4.88672,-18.02344 10.5586,-25.44141 3.12109,-4.39843 6.96094,-8.23828 11.35937,-11.35937 7.4336,-5.66406 16.19141,-9.32422 25.44141,-10.64063 2.64844,-0.39062 5.32422,-0.57812 8,-0.55859 2.67969,-0.0273 5.35937,0.18359 8,0.64062 9.25391,1.25 18.02344,4.88672 25.44141,10.5586 4.39843,3.12109 8.23828,6.96094 11.35937,11.35937 5.66406,7.4336 9.32422,16.19141 10.64063,25.44141 0.39062,2.64844 0.57812,5.32422 0.55859,8 z m 0,0"
           id="path5299" />
        <path
           style="fill:#ee8700"
           d="M 384,152.64062 V 176 h -16 v -23.44141 c 2.64844,-0.39062 5.32422,-0.57812 8,-0.55859 2.67969,-0.0273 5.35937,0.18359 8,0.64062 z m 0,0"
           id="path5301" />
        <path
           style="fill:#ee8700"
           d="m 359.03906,179.67969 -11.35937,11.35937 -16.48047,-16.48047 c 3.12109,-4.39843 6.96094,-8.23828 11.35937,-11.35937 z m 0,0"
           id="path5303" />
        <path
           style="fill:#ee8700"
           d="m 344,200 v 16 h -23.35938 c -0.45703,-2.64063 -0.67187,-5.32031 -0.64062,-8 -0.0273,-2.67969 0.1875,-5.35938 0.64062,-8 z m 0,0"
           id="path5305" />
        <path
           style="fill:#ee8700"
           d="m 432,208 c 0.0312,2.67969 -0.18359,5.35937 -0.64063,8 H 408 v -16 h 23.44141 c 0.39062,2.64844 0.57812,5.32422 0.55859,8 z m 0,0"
           id="path5307" />
        <path
           style="fill:#ee8700"
           d="m 420.80078,174.55859 -16.48047,16.48047 -11.35937,-11.35937 16.48047,-16.48047 c 4.39843,3.12109 8.23828,6.96094 11.35937,11.35937 z m 0,0"
           id="path5309" />
        <path
           style="fill:#ee8700"
           d="m 368,200 h 16 v 40 h -16 z m 0,0"
           id="path5311" />
        <path
           style="fill:#ee8700"
           d="M 384,152.64062 V 176 h -16 v -23.44141 c 2.64844,-0.39062 5.32422,-0.57812 8,-0.55859 2.67969,-0.0273 5.35937,0.18359 8,0.64062 z m 0,0"
           id="path5313" />
        <path
           style="fill:#ee8700"
           d="m 359.03906,179.67969 -11.35937,11.35937 -16.48047,-16.48047 c 3.12109,-4.39843 6.96094,-8.23828 11.35937,-11.35937 z m 0,0"
           id="path5315" />
        <path
           style="fill:#ee8700"
           d="m 344,200 v 16 h -23.35938 c -0.45703,-2.64063 -0.67187,-5.32031 -0.64062,-8 -0.0273,-2.67969 0.1875,-5.35938 0.64062,-8 z m 0,0"
           id="path5317" />
        <path
           style="fill:#ee8700"
           d="m 432,208 c 0.0312,2.67969 -0.18359,5.35937 -0.64063,8 H 408 v -16 h 23.44141 c 0.39062,2.64844 0.57812,5.32422 0.55859,8 z m 0,0"
           id="path5319" />
        <path
           style="fill:#ee8700"
           d="m 420.80078,174.55859 -16.48047,16.48047 -11.35937,-11.35937 16.48047,-16.48047 c 4.39843,3.12109 8.23828,6.96094 11.35937,11.35937 z m 0,0"
           id="path5321" />
        <path
           style="fill:#787680"
           d="m 368,200 h 16 v 40 h -16 z m 0,0"
           id="path5323" />
        <path
           style="fill:#57565c"
           d="m 160,280 c -9.91016,0 -19.26172,4.59375 -25.32031,12.4375 -6.0586,7.84375 -8.14063,18.05078 -5.64063,27.64062 l -44.917966,24.92969 7.757812,13.98438 44.960934,-24.94532 c 10.05078,10.57422 25.98047,13.01172 38.73438,5.92579 12.75,-7.08204 19.09765,-21.89454 15.42969,-36.01563 C 187.33984,289.83984 174.58594,279.98437 160,280 Z m 0,48 c -8.83594,0 -16,-7.16406 -16,-16 0,-8.83594 7.16406,-16 16,-16 8.83594,0 16,7.16406 16,16 0,8.83594 -7.16406,16 -16,16 z m 0,0"
           id="path5325" />
      </g>
      <g
         transform="matrix(1.0123781,0,0,1.0776533,406.60044,156.78841)"
         id="g5912">
        <rect
           x="-6.1420002"
           y="31.306"
           transform="matrix(0.7071,-0.7071,0.7071,0.7071,-17.7016,25.8758)"
           style="fill:#424a60"
           width="57.051998"
           height="6"
           id="rect5833" />
        <path
           style="fill:#ebba16"
           d="m 40.506,9 c -0.552,0 -1,-0.447 -1,-1 V 1 c 0,-0.553 0.448,-1 1,-1 0.552,0 1,0.447 1,1 v 7 c 0,0.553 -0.448,1 -1,1 z"
           id="path5835" />
        <path
           style="fill:#ebba16"
           d="m 40.506,32 c -0.552,0 -1,-0.447 -1,-1 v -7 c 0,-0.553 0.448,-1 1,-1 0.552,0 1,0.447 1,1 v 7 c 0,0.553 -0.448,1 -1,1 z"
           id="path5837" />
        <path
           style="fill:#ebba16"
           d="m 55.506,17 h -7 c -0.552,0 -1,-0.447 -1,-1 0,-0.553 0.448,-1 1,-1 h 7 c 0.552,0 1,0.447 1,1 0,0.553 -0.448,1 -1,1 z"
           id="path5839" />
        <path
           style="fill:#ebba16"
           d="m 32.506,17 h -7 c -0.552,0 -1,-0.447 -1,-1 0,-0.553 0.448,-1 1,-1 h 7 c 0.552,0 1,0.447 1,1 0,0.553 -0.448,1 -1,1 z"
           id="path5841" />
        <path
           style="fill:#ebba16"
           d="m 46.506,11 c -0.256,0 -0.512,-0.098 -0.707,-0.293 -0.391,-0.391 -0.391,-1.023 0,-1.414 l 4.95,-4.95 c 0.391,-0.391 1.023,-0.391 1.414,0 0.391,0.391 0.391,1.023 0,1.414 l -4.95,4.95 C 47.018,10.902 46.762,11 46.506,11 Z"
           id="path5843" />
        <path
           style="fill:#ebba16"
           d="m 51.456,27.95 c -0.256,0 -0.512,-0.098 -0.707,-0.293 l -4.95,-4.95 c -0.391,-0.391 -0.391,-1.023 0,-1.414 0.391,-0.391 1.023,-0.391 1.414,0 l 4.95,4.95 c 0.391,0.391 0.391,1.023 0,1.414 -0.196,0.196 -0.452,0.293 -0.707,0.293 z"
           id="path5845" />
        <path
           style="fill:#ebba16"
           d="m 34.506,11 c -0.256,0 -0.512,-0.098 -0.707,-0.293 l -4.95,-4.95 c -0.391,-0.391 -0.391,-1.023 0,-1.414 0.391,-0.391 1.023,-0.391 1.414,0 l 4.95,4.95 c 0.391,0.391 0.391,1.023 0,1.414 C 35.018,10.902 34.762,11 34.506,11 Z"
           id="path5847" />
        <rect
           x="30.327"
           y="16.174999"
           transform="matrix(-0.7071,0.7071,-0.7071,-0.7071,77.6005,6.2057)"
           style="fill:#7383bf"
           width="14.376"
           height="5.9990001"
           id="rect5849" />
        <g
           id="g5851" />
        <g
           id="g5853" />
        <g
           id="g5855" />
        <g
           id="g5857" />
        <g
           id="g5859" />
        <g
           id="g5861" />
        <g
           id="g5863" />
        <g
           id="g5865" />
        <g
           id="g5867" />
        <g
           id="g5869" />
        <g
           id="g5871" />
        <g
           id="g5873" />
        <g
           id="g5875" />
        <g
           id="g5877" />
        <g
           id="g5879" />
      </g>
      <g
         transform="matrix(1.6664373,0,0,1.6664373,567.09871,-118.06293)"
         id="g6178">
        <g
           id="g6089">
          <path
             style="fill:#ecf0f1"
             d="M 54.804,15 H 53.169 C 52.523,15 52,14.477 52,13.832 V 7.168 C 52,6.523 51.477,6 50.832,6 H 29.168 C 28.523,6 28,6.523 28,7.168 v 6.664 C 28,14.477 27.477,15 26.832,15 H 16 v -3 h -4 v 3 H 3.196 C 2.536,15 2,15.536 2,16.196 V 44.803 C 2,45.464 2.536,46 3.196,46 H 54.803 C 55.464,46 56,45.464 56,44.804 V 16.196 C 56,15.536 55.464,15 54.804,15 Z"
             id="path6021" />
          <path
             style="fill:#bdc3c7"
             d="M 28,13.832 C 28,14.477 27.477,15 26.832,15 H 16 v -3 h -4 v 3 H 3.196 C 2.536,15 2,15.536 2,16.196 V 44.803 C 2,45.464 2.536,46 3.196,46 H 28 Z"
             id="path6023" />
          <rect
             x="0"
             y="50"
             style="fill:#6d6d6e"
             width="58"
             height="8"
             id="rect6025" />
          <path
             style="fill:#ecf0f1"
             d="M 19,55 H 5 C 4.448,55 4,54.553 4,54 4,53.447 4.448,53 5,53 h 14 c 0.552,0 1,0.447 1,1 0,0.553 -0.448,1 -1,1 z"
             id="path6027" />
          <path
             style="fill:#ecf0f1"
             d="m 54,55 h -1 c -0.552,0 -1,-0.447 -1,-1 0,-0.553 0.448,-1 1,-1 h 1 c 0.552,0 1,0.447 1,1 0,0.553 -0.448,1 -1,1 z"
             id="path6029" />
          <rect
             x="31"
             y="9"
             style="fill:#94b571"
             width="18"
             height="11"
             id="rect6031" />
          <rect
             x="4"
             y="46"
             style="fill:#8b8a8b"
             width="50"
             height="4"
             id="rect6033" />
          <rect
             x="31"
             y="24"
             style="fill:#f29c1f"
             width="4"
             height="4"
             id="rect6035" />
          <rect
             x="38"
             y="24"
             style="fill:#f29c1f"
             width="4"
             height="4"
             id="rect6037" />
          <rect
             x="45"
             y="24"
             style="fill:#f29c1f"
             width="4"
             height="4"
             id="rect6039" />
          <rect
             x="31"
             y="31"
             style="fill:#f29c1f"
             width="4"
             height="4"
             id="rect6041" />
          <rect
             x="38"
             y="31"
             style="fill:#f29c1f"
             width="4"
             height="4"
             id="rect6043" />
          <rect
             x="45"
             y="31"
             style="fill:#f29c1f"
             width="4"
             height="4"
             id="rect6045" />
          <rect
             x="31"
             y="38"
             style="fill:#f29c1f"
             width="4"
             height="4"
             id="rect6047" />
          <rect
             x="38"
             y="38"
             style="fill:#f29c1f"
             width="4"
             height="4"
             id="rect6049" />
          <rect
             x="45"
             y="38"
             style="fill:#71c285"
             width="4"
             height="4"
             id="rect6051" />
          <path
             style="fill:#6d6d6e"
             d="M 24,40 H 6 C 5.448,40 5,39.553 5,39 5,38.447 5.448,38 6,38 h 18 c 0.552,0 1,0.447 1,1 0,0.553 -0.448,1 -1,1 z"
             id="path6053" />
          <rect
             x="8"
             y="21"
             style="fill:#f0ede0"
             width="14"
             height="18"
             id="rect6055" />
          <path
             style="fill:#d4c3a5"
             d="m 16,36 h -5 c -0.552,0 -1,-0.447 -1,-1 0,-0.553 0.448,-1 1,-1 h 5 c 0.552,0 1,0.447 1,1 0,0.553 -0.448,1 -1,1 z"
             id="path6057" />
          <path
             style="fill:#d4c3a5"
             d="M 19,36 C 18.74,36 18.48,35.89 18.29,35.71 18.11,35.52 18,35.26 18,35 c 0,-0.26 0.11,-0.521 0.29,-0.71 0.38,-0.37 1.05,-0.37 1.42,0 0.18,0.189 0.29,0.45 0.29,0.71 0,0.26 -0.11,0.52 -0.29,0.71 C 19.52,35.89 19.26,36 19,36 Z"
             id="path6059" />
          <path
             style="fill:#d4c3a5"
             d="m 19,26 h -5 c -0.552,0 -1,-0.447 -1,-1 0,-0.553 0.448,-1 1,-1 h 5 c 0.552,0 1,0.447 1,1 0,0.553 -0.448,1 -1,1 z"
             id="path6061" />
          <path
             style="fill:#70845a"
             d="m 39,13 h -5 c -0.552,0 -1,-0.447 -1,-1 0,-0.553 0.448,-1 1,-1 h 5 c 0.552,0 1,0.447 1,1 0,0.553 -0.448,1 -1,1 z"
             id="path6063" />
          <path
             style="fill:#70845a"
             d="m 39,17 h -5 c -0.552,0 -1,-0.447 -1,-1 0,-0.553 0.448,-1 1,-1 h 5 c 0.552,0 1,0.447 1,1 0,0.553 -0.448,1 -1,1 z"
             id="path6065" />
          <path
             style="fill:#d4c3a5"
             d="m 19,31 h -1 c -0.552,0 -1,-0.447 -1,-1 0,-0.553 0.448,-1 1,-1 h 1 c 0.552,0 1,0.447 1,1 0,0.553 -0.448,1 -1,1 z"
             id="path6067" />
          <path
             style="fill:#d4c3a5"
             d="m 12,31 h -1 c -0.552,0 -1,-0.447 -1,-1 0,-0.553 0.448,-1 1,-1 h 1 c 0.552,0 1,0.447 1,1 0,0.553 -0.448,1 -1,1 z"
             id="path6069" />
          <path
             style="fill:#d4c3a5"
             d="M 11,26 C 10.74,26 10.48,25.89 10.29,25.71 10.11,25.52 10,25.27 10,25 c 0,-0.26 0.11,-0.521 0.29,-0.71 0.37,-0.37 1.04,-0.37 1.42,0 0.18,0.189 0.29,0.45 0.29,0.71 0,0.27 -0.11,0.52 -0.29,0.71 C 11.52,25.89 11.26,26 11,26 Z"
             id="path6071" />
          <path
             style="fill:#d4c3a5"
             d="M 15,31 C 14.74,31 14.48,30.89 14.29,30.71 14.11,30.52 14,30.26 14,30 c 0,-0.271 0.11,-0.521 0.29,-0.71 0.38,-0.37 1.04,-0.37 1.42,0 0.18,0.189 0.29,0.45 0.29,0.71 0,0.26 -0.11,0.52 -0.29,0.71 C 15.52,30.89 15.26,31 15,31 Z"
             id="path6073" />
          <rect
             y="0"
             x="3"
             style="fill:#ecf0f1"
             width="22"
             height="13"
             id="rect6075" />
          <rect
             x="5"
             y="2"
             style="fill:#94b571"
             width="18"
             height="9"
             id="rect6077" />
          <g
             id="g6087">
            <path
               style="fill:#70845a"
               d="M 8.382,3.077 C 8.138,2.976 7.862,2.976 7.618,3.077 7.495,3.128 7.385,3.201 7.292,3.294 L 6.293,4.293 C 5.902,4.684 5.902,5.316 6.293,5.707 6.488,5.902 6.744,6 7,6 v 3 c 0,0.553 0.448,1 1,1 0.552,0 1,-0.447 1,-1 V 4 C 9,3.87 8.973,3.74 8.923,3.618 8.822,3.373 8.627,3.178 8.382,3.077 Z"
               id="path6079" />
            <path
               style="fill:#70845a"
               d="m 17.382,3.077 c -0.244,-0.101 -0.52,-0.101 -0.764,0 -0.123,0.051 -0.233,0.124 -0.326,0.217 l -0.999,0.999 c -0.391,0.391 -0.391,1.023 0,1.414 C 15.488,5.902 15.744,6 16,6 v 3 c 0,0.553 0.448,1 1,1 0.552,0 1,-0.447 1,-1 V 4 C 18,3.87 17.973,3.74 17.923,3.618 17.822,3.373 17.627,3.178 17.382,3.077 Z"
               id="path6081" />
            <path
               style="fill:#70845a"
               d="m 12.293,7.293 -1,1 c -0.391,0.391 -0.391,1.023 0,1.414 C 11.488,9.902 11.744,10 12,10 c 0.256,0 0.512,-0.098 0.707,-0.293 l 1,-1 c 0.391,-0.391 0.391,-1.023 0,-1.414 -0.391,-0.391 -1.023,-0.391 -1.414,0 z"
               id="path6083" />
            <path
               style="fill:#70845a"
               d="m 21.923,3.618 c -0.101,-0.245 -0.296,-0.44 -0.541,-0.541 -0.244,-0.101 -0.52,-0.101 -0.764,0 -0.123,0.051 -0.233,0.124 -0.326,0.217 l -0.999,0.999 c -0.391,0.391 -0.391,1.023 0,1.414 C 19.488,5.902 19.744,6 20,6 v 3 c 0,0.553 0.448,1 1,1 0.552,0 1,-0.447 1,-1 V 4 C 22,3.87 21.973,3.74 21.923,3.618 Z"
               id="path6085" />
          </g>
        </g>
        <g
           id="g6091" />
        <g
           id="g6093" />
        <g
           id="g6095" />
        <g
           id="g6097" />
        <g
           id="g6099" />
        <g
           id="g6101" />
        <g
           id="g6103" />
        <g
           id="g6105" />
        <g
           id="g6107" />
        <g
           id="g6109" />
        <g
           id="g6111" />
        <g
           id="g6113" />
        <g
           id="g6115" />
        <g
           id="g6117" />
        <g
           id="g6119" />
      </g>
      <g
         style="fill:#e74a4b;fill-opacity:1"
         transform="matrix(0.20736543,0,0,0.20736543,288.73738,-92.645346)"
         id="g6335">
        <g
           style="fill:#e74a4b;fill-opacity:1"
           id="Settings">
          <g
             style="fill:#e74a4b;fill-opacity:1"
             id="g6277">
            <path
               style="clip-rule:evenodd;fill:#e74a4b;fill-opacity:1;fill-rule:evenodd"
               d="m 267.92,119.461 c -0.425,-3.778 -4.83,-6.617 -8.639,-6.617 -12.315,0 -23.243,-7.231 -27.826,-18.414 -4.682,-11.454 -1.663,-24.812 7.515,-33.231 2.889,-2.641 3.24,-7.062 0.817,-10.133 -6.303,-8.004 -13.467,-15.234 -21.289,-21.5 -3.063,-2.458 -7.557,-2.116 -10.213,0.825 -8.01,8.871 -22.398,12.168 -33.516,7.529 -11.57,-4.867 -18.866,-16.591 -18.152,-29.176 0.235,-3.953 -2.654,-7.39 -6.595,-7.849 -10.038,-1.161 -20.164,-1.197 -30.232,-0.08 -3.896,0.43 -6.785,3.786 -6.654,7.689 0.438,12.461 -6.946,23.98 -18.401,28.672 -10.985,4.487 -25.272,1.218 -33.266,-7.574 -2.642,-2.896 -7.063,-3.252 -10.141,-0.853 -8.054,6.319 -15.379,13.555 -21.74,21.493 -2.481,3.086 -2.116,7.559 0.802,10.214 9.353,8.47 12.373,21.944 7.514,33.53 -4.639,11.046 -16.109,18.165 -29.24,18.165 -4.261,-0.137 -7.296,2.723 -7.762,6.597 -1.182,10.096 -1.196,20.383 -0.058,30.561 0.422,3.794 4.961,6.608 8.812,6.608 11.702,-0.299 22.937,6.946 27.65,18.415 4.698,11.454 1.678,24.804 -7.514,33.23 -2.875,2.641 -3.24,7.055 -0.817,10.126 6.244,7.953 13.409,15.19 21.259,21.508 3.079,2.481 7.559,2.131 10.228,-0.81 8.04,-8.893 22.427,-12.184 33.501,-7.536 11.599,4.852 18.895,16.575 18.181,29.167 -0.233,3.955 2.67,7.398 6.595,7.85 5.135,0.599 10.301,0.898 15.481,0.898 4.917,0 9.835,-0.27 14.752,-0.817 3.897,-0.43 6.784,-3.786 6.653,-7.696 -0.451,-12.454 6.946,-23.973 18.386,-28.657 11.059,-4.517 25.286,-1.211 33.281,7.572 2.657,2.89 7.047,3.239 10.142,0.848 8.039,-6.304 15.349,-13.534 21.74,-21.494 2.48,-3.079 2.13,-7.559 -0.803,-10.213 -9.353,-8.47 -12.388,-21.946 -7.529,-33.524 4.568,-10.899 15.612,-18.217 27.491,-18.217 l 1.662,0.043 c 3.853,0.313 7.398,-2.655 7.865,-6.588 1.184,-10.105 1.198,-20.383 0.06,-30.561 z m -133.325,60.03 c -24.718,0 -44.824,-20.106 -44.824,-44.824 0,-24.717 20.106,-44.824 44.824,-44.824 24.717,0 44.823,20.107 44.823,44.824 0,24.718 -20.106,44.824 -44.823,44.824 z"
               id="path6275" />
          </g>
        </g>
        <g
           style="fill:#e74a4b;fill-opacity:1"
           id="g6280" />
        <g
           style="fill:#e74a4b;fill-opacity:1"
           id="g6282" />
        <g
           style="fill:#e74a4b;fill-opacity:1"
           id="g6284" />
        <g
           style="fill:#e74a4b;fill-opacity:1"
           id="g6286" />
        <g
           style="fill:#e74a4b;fill-opacity:1"
           id="g6288" />
        <g
           style="fill:#e74a4b;fill-opacity:1"
           id="g6290" />
        <g
           style="fill:#e74a4b;fill-opacity:1"
           id="g6292" />
        <g
           style="fill:#e74a4b;fill-opacity:1"
           id="g6294" />
        <g
           style="fill:#e74a4b;fill-opacity:1"
           id="g6296" />
        <g
           style="fill:#e74a4b;fill-opacity:1"
           id="g6298" />
        <g
           style="fill:#e74a4b;fill-opacity:1"
           id="g6300" />
        <g
           style="fill:#e74a4b;fill-opacity:1"
           id="g6302" />
        <g
           style="fill:#e74a4b;fill-opacity:1"
           id="g6304" />
        <g
           style="fill:#e74a4b;fill-opacity:1"
           id="g6306" />
        <g
           style="fill:#e74a4b;fill-opacity:1"
           id="g6308" />
      </g>
      <path
         id="path6389"
         d="m 4.6957523,-137.42291 c 60.9638837,0.23686 99.8078277,-0.77999 99.8078277,-0.77999 l 521.69557,0.70281"
         style="fill:none;fill-opacity:1;stroke:#f37e4a;stroke-width:7.06307411;stroke-linecap:butt;stroke-linejoin:round;stroke-miterlimit:4;stroke-dasharray:none;stroke-opacity:1;marker-mid:url(#DotS);marker-end:url(#DotS)" />
      <path
         id="path6389-0"
         d="m 9.0126287,-177.5649 43.6217203,-0.9953 0.735956,119.528361 c 1.511084,53.5790205 1.511084,188.662789 1.511084,188.662789 h 98.350461 v 24.88386"
         style="fill:none;stroke:#e74a4b;stroke-width:7.94451427;stroke-linecap:butt;stroke-linejoin:round;stroke-miterlimit:4;stroke-dasharray:none;stroke-opacity:1;marker-start:url(#DotS-6);marker-mid:url(#DotS-6);marker-end:url(#DotS-6)" />
      <path
         id="path6389-9"
         d="M 439.98862,129.63095 439.56068,-4.9683319 174.0145,-6.8895611 c 0,0 0.75869,43.5659661 0.75869,-129.5975489 0.97263,-40.78278 1.73819,-115.3756 1.73819,-115.3756 l 273.68536,6.00664 83.71991,0.66408"
         style="fill:none;fill-opacity:1;stroke:#254e70;stroke-width:7.66401863;stroke-linecap:round;stroke-linejoin:round;stroke-miterlimit:4;stroke-dasharray:none;stroke-opacity:1;marker-start:url(#DotS-3);marker-mid:url(#DotS-3);marker-end:url(#DotS-3);paint-order:stroke fill markers" />
      <path
         id="path16125"
         d="M 52.511497,-58.775367 H 167.45119 l 73.4666,1.184949 23.69893,-24.883851"
         style="fill:none;fill-opacity:1;stroke:#e74a4b;stroke-width:6.63569355;stroke-linecap:butt;stroke-linejoin:miter;stroke-miterlimit:4;stroke-dasharray:none;stroke-opacity:1;marker-start:url(#marker16147);marker-mid:url(#marker16229);marker-end:url(#marker16323)" />
      <path
         id="path16125-1"
         d="m 284.62304,280.64552 1.18494,-72.28163 1.18495,-73.4666 -24.88385,-23.69894"
         style="fill:none;fill-opacity:1;stroke:#856084;stroke-width:6.63569355;stroke-linecap:butt;stroke-linejoin:miter;stroke-miterlimit:4;stroke-dasharray:none;stroke-opacity:1;marker-start:url(#marker16147-2);marker-mid:url(#marker16229-3);marker-end:url(#marker16323-7)" />
      <g
         transform="matrix(0.27648725,0,0,0.27648725,578.46923,102.61418)"
         id="g23884">
        <path
           style="fill:#78b9eb"
           d="m 464,216 c 0,26.50781 -21.49219,48 -48,48 H 48 C 21.492188,264 0,242.50781 0,216 0.0976562,189.53125 21.53125,168.09766 48,168 h 368 c 26.46875,0.0977 47.90234,21.53125 48,48 z m 0,0"
           id="path23822" />
        <g
           style="fill:#ffde55"
           id="g23834">
          <path
             d="m 256,216 c 0,13.25391 -10.74609,24 -24,24 -13.25391,0 -24,-10.74609 -24,-24 0,-13.25391 10.74609,-24 24,-24 13.25391,0 24,10.74609 24,24 z m 0,0"
             id="path23824" />
          <path
             d="m 176,216 c 0,13.25391 -10.74609,24 -24,24 -13.25391,0 -24,-10.74609 -24,-24 0,-13.25391 10.74609,-24 24,-24 13.25391,0 24,10.74609 24,24 z m 0,0"
             id="path23826" />
          <path
             d="m 96,216 c 0,13.25391 -10.746094,24 -24,24 -13.253906,0 -24,-10.74609 -24,-24 0,-13.25391 10.746094,-24 24,-24 13.253906,0 24,10.74609 24,24 z m 0,0"
             id="path23828" />
          <path
             d="m 336,216 c 0,13.25391 -10.74609,24 -24,24 -13.25391,0 -24,-10.74609 -24,-24 0,-13.25391 10.74609,-24 24,-24 13.25391,0 24,10.74609 24,24 z m 0,0"
             id="path23830" />
          <path
             d="m 416,216 c 0,13.25391 -10.74609,24 -24,24 -13.25391,0 -24,-10.74609 -24,-24 0,-13.25391 10.74609,-24 24,-24 13.25391,0 24,10.74609 24,24 z m 0,0"
             id="path23832" />
        </g>
        <path
           style="fill:#ffb655"
           d="M 56,0 H 216 V 112 H 56 Z m 0,0"
           id="path23836" />
        <path
           style="fill:#d1d3d4"
           d="m 56,112 h 160 v 32 H 56 Z m 0,0"
           id="path23838" />
        <path
           style="fill:#ffb655"
           d="M 248,0 H 408 V 112 H 248 Z m 0,0"
           id="path23840" />
        <path
           style="fill:#d1d3d4"
           d="m 248,112 h 160 v 32 H 248 Z m 0,0"
           id="path23842" />
        <path
           style="fill:#ff6243"
           d="m 112,0 h 48 v 48 h -48 z m 0,0"
           id="path23844" />
        <path
           style="fill:#ff6243"
           d="m 304,0 h 48 v 48 h -48 z m 0,0"
           id="path23846" />
        <path
           style="fill:#ffa733"
           d="M 408,0 V 112 H 299.76172 C 335.875,78.910156 367.52734,41.261719 393.92187,0 Z m 0,0"
           id="path23848" />
        <path
           style="fill:#ffa733"
           d="M 216,0 V 112 H 107.76172 C 143.875,78.910156 175.52734,41.261719 201.92187,0 Z m 0,0"
           id="path23850" />
        <path
           style="fill:#bcbec0"
           d="m 408,112 v 32 H 262.71875 c 12.5625,-10.07813 24.96094,-20.80078 37.04297,-32 z m 0,0"
           id="path23852" />
        <path
           style="fill:#bcbec0"
           d="m 216,112 v 32 H 70.71875 c 12.5625,-10.07813 24.960938,-20.80078 37.04297,-32 z m 0,0"
           id="path23854" />
        <path
           style="fill:#5aaae7"
           d="M 451.67969,184 H 12.320312 C 21.371094,173.80078 34.363281,167.97266 48,168 h 368 c 13.63672,-0.0273 26.62891,5.80078 35.67969,16 z m 0,0"
           id="path23856" />
      </g>
      <g
         transform="matrix(0.15414323,0,0,0.14488201,187.82451,31.510979)"
         id="g24578">
        <g
           id="g24514">
          <path
             style="fill:#34485c"
             d="M 151.146,412.177 304.172,259.151 C 293.57,237.435 275.835,219.568 254.437,209.01 L 101.208,362.24 C 83.103,354.737 71,356.281 59.842,361.004 L 37.446,338.617 0,376.064 22.387,398.46 c -10.884,25.697 -5.888,56.523 15.06,77.48 20.957,20.948 51.783,25.944 77.489,15.06 l 22.457,21.054 37.385,-36.114 -22.396,-22.387 c 4.723,-11.168 6.276,-23.27 -1.236,-41.376"
             id="path24496" />
          <path
             style="fill:#576d7e"
             d="m 314.684,298.575 -21.522,21.522 c -8.801,8.801 -8.801,23.058 0,31.859 l 9.039,9.039 149.804,-149.813 -18.705,-18.706 49.938,-49.938 12.482,12.482 12.465,-12.465 c 5.111,-6.912 5.261,-18.105 0,-25 L 395.827,5.199 c -6.903,-6.903 -18.088,-6.903 -25,0 L 358.362,17.664 370.844,30.155 320.906,80.093 302.2,61.379 152.389,211.182 l 9.039,9.048 c 8.801,8.792 23.058,8.792 31.859,0 l 21.522,-21.53 c 52.047,2.066 96.715,46.813 99.875,99.875"
             id="path24498" />
          <g
             id="g24506">
            <path
               style="fill:#34485c"
               d="m 470.746,188.824 c -2.26,0 -4.52,-0.865 -6.241,-2.586 L 327.148,48.871 c -3.443,-3.443 -3.443,-9.031 0,-12.482 3.452,-3.443 9.039,-3.443 12.482,0 l 137.357,137.366 c 3.452,3.452 3.452,9.031 0,12.482 -1.721,1.721 -3.981,2.587 -6.241,2.587"
               id="path24500" />
            <path
               style="fill:#34485c"
               d="m 483.238,151.366 c -2.26,0 -4.52,-0.865 -6.241,-2.587 L 364.613,36.396 c -3.452,-3.452 -3.452,-9.039 0,-12.482 3.443,-3.452 9.031,-3.452 12.482,0 l 112.384,112.384 c 3.452,3.452 3.452,9.031 0,12.482 -1.721,1.721 -3.981,2.586 -6.241,2.586"
               id="path24502" />
            <path
               style="fill:#34485c"
               d="m 433.298,201.307 c -2.26,0 -4.52,-0.865 -6.241,-2.586 L 314.673,86.336 c -3.452,-3.452 -3.452,-9.039 0,-12.482 3.443,-3.452 9.031,-3.452 12.482,0 l 112.384,112.384 c 3.452,3.452 3.452,9.031 0,12.482 -1.722,1.722 -3.981,2.587 -6.241,2.587"
               id="path24504" />
          </g>
          <path
             style="fill:#576d7e"
             d="m 168.54,353.677 c -2.26,0 -4.52,-0.865 -6.241,-2.586 -3.452,-3.452 -3.452,-9.031 0,-12.482 l 83.721,-83.721 c 3.452,-3.452 9.039,-3.452 12.482,0 3.452,3.443 3.452,9.031 0,12.482 l -83.721,83.721 c -1.721,1.721 -3.981,2.586 -6.241,2.586"
             id="path24508" />
          <path
             style="fill:#34485c"
             d="m 353.1,185.401 c 0,14.627 -11.855,26.483 -26.483,26.483 -14.628,0 -26.483,-11.855 -26.483,-26.483 0,-14.628 11.855,-26.483 26.483,-26.483 14.628,0 26.483,11.856 26.483,26.483"
             id="path24510" />
          <path
             style="fill:#576d7e"
             d="m 62.416,450.97 c -13.789,-13.789 -13.789,-36.149 0,-49.938 13.789,-13.789 36.149,-13.789 49.938,0 13.789,13.789 13.789,36.149 0,49.938 -13.789,13.789 -36.149,13.789 -49.938,0"
             id="path24512" />
        </g>
        <g
           id="g24516" />
        <g
           id="g24518" />
        <g
           id="g24520" />
        <g
           id="g24522" />
        <g
           id="g24524" />
        <g
           id="g24526" />
        <g
           id="g24528" />
        <g
           id="g24530" />
        <g
           id="g24532" />
        <g
           id="g24534" />
        <g
           id="g24536" />
        <g
           id="g24538" />
        <g
           id="g24540" />
        <g
           id="g24542" />
        <g
           id="g24544" />
      </g>
      <g
         transform="matrix(0.17178303,0,0,0.15901422,106.86099,178.05571)"
         id="g25021">
        <path
           style="fill:#195c85"
           d="M 215.42578,47.832031 271.99609,104.40234 136.23047,240.16797 79.660156,183.59766 Z m 0,0"
           id="path24974" />
        <path
           style="fill:#195c85"
           d="M 416,184 384,216 232,96.230469 288.56641,39.664062 Z m 0,0"
           id="path24976" />
        <path
           style="fill:#32b1cc"
           d="m 0,416 h 304 v 48 H 0 Z m 0,0"
           id="path24978" />
        <path
           style="fill:#32b1cc"
           d="m 384,240 c -17.67188,0 -32,14.32812 -32,32 v 80 l 32,-16 v -64 h 48 v 64 l 32,16 v -80 c 0,-17.67188 -14.32813,-32 -32,-32 z m 0,0"
           id="path24980" />
        <path
           style="fill:#195c85"
           d="m 56,232 h 80 V 416 H 56 Z m 0,0"
           id="path24982" />
        <path
           style="fill:#d9176c"
           d="m 160,232 c 0,35.34766 -28.65234,64 -64,64 -35.347656,0 -64,-28.65234 -64,-64 0,-35.34766 28.652344,-64 64,-64 35.34766,0 64,28.65234 64,64 z m 0,0"
           id="path24984" />
        <path
           style="fill:#fcf05a"
           d="m 128,232 c 0,17.67187 -14.32812,32 -32,32 -17.671875,0 -32,-14.32813 -32,-32 0,-17.67188 14.328125,-32 32,-32 17.67188,0 32,14.32812 32,32 z m 0,0"
           id="path24986" />
        <path
           style="fill:#d9176c"
           d="m 320,64 c 0,35.347656 -28.65234,64 -64,64 -35.34766,0 -64,-28.652344 -64,-64 0,-35.347656 28.65234,-64 64,-64 35.34766,0 64,28.652344 64,64 z m 0,0"
           id="path24988" />
        <path
           style="fill:#fcf05a"
           d="m 288,64 c 0,17.671875 -14.32813,32 -32,32 -17.67188,0 -32,-14.328125 -32,-32 0,-17.671875 14.32812,-32 32,-32 17.67187,0 32,14.328125 32,32 z m 0,0"
           id="path24990" />
        <path
           style="fill:#d9176c"
           d="m 408,176 c 17.67187,0 32,14.32812 32,32 v 40 h -64 v -40 c 0,-17.67188 14.32812,-32 32,-32 z m 0,0"
           id="path24992" />
        <g
           style="fill:#32b1cc"
           id="g24998">
          <path
             d="m 88,392 c -4.417969,0 -8,-3.58203 -8,-8 v -48 c 0,-4.41797 3.582031,-8 8,-8 4.417969,0 8,3.58203 8,8 v 48 c 0,4.41797 -3.582031,8 -8,8 z m 0,0"
             id="path24994" />
          <path
             d="m 152,168 c -3.23438,0 -6.15234,-1.94922 -7.39063,-4.9375 -1.23828,-2.98828 -0.55078,-6.42969 1.73438,-8.71875 l 32,-32 c 3.14062,-3.03125 8.12891,-2.98828 11.21484,0.0977 3.08594,3.08593 3.12891,8.07421 0.0977,11.21484 l -32,32 C 156.15625,167.15625 154.12109,168 152,168 Z m 0,0"
             id="path24996" />
        </g>
      </g>
      <path
         id="path16125-1-9"
         d="m 522.26623,266.37689 -1.18495,-55.69239 10e-6,-137.453655 118.49453,2.369852"
         style="fill:none;fill-opacity:1;stroke:#84e296;stroke-width:6.63569355;stroke-linecap:butt;stroke-linejoin:miter;stroke-miterlimit:4;stroke-dasharray:none;stroke-opacity:1;marker-start:url(#marker16147-2-3);marker-mid:url(#marker16229-3-0);marker-end:url(#marker16323-7-0)" />
    </g>
  </g>
</svg>
